<?xml version="1.0" encoding="UTF-8" standalone="no"?>
<svg
   width="512"
   height="128"
   viewBox="0 0 512 128"
   fill="none"
   version="1.1"
   id="svg6"
   sodipodi:docname="devbreak-commands.svg"
   xml:space="preserve"
   inkscape:export-filename="../../../Streaming/m-socials-spacebar.png"
   inkscape:export-xdpi="96"
   inkscape:export-ydpi="96"
   inkscape:version="1.2.1 (9c6d41e410, 2022-07-14)"
   xmlns:inkscape="http://www.inkscape.org/namespaces/inkscape"
   xmlns:sodipodi="http://sodipodi.sourceforge.net/DTD/sodipodi-0.dtd"
   xmlns="http://www.w3.org/2000/svg"
   xmlns:svg="http://www.w3.org/2000/svg"><defs
     id="defs10"><rect
       x="47.034356"
       y="29.82146"
       width="433.2521"
       height="106.86174"
       id="rect1723" /></defs><sodipodi:namedview
     id="namedview8"
     pagecolor="#ffffff"
     bordercolor="#666666"
     borderopacity="1.0"
     inkscape:showpageshadow="2"
     inkscape:pageopacity="0.0"
     inkscape:pagecheckerboard="0"
     inkscape:deskcolor="#d1d1d1"
     showgrid="false"
     showguides="true"
     inkscape:zoom="0.53999756"
     inkscape:cx="206.48241"
     inkscape:cy="-294.44577"
     inkscape:window-width="960"
     inkscape:window-height="1011"
     inkscape:window-x="26"
     inkscape:window-y="23"
     inkscape:window-maximized="0"
     inkscape:current-layer="svg6"><sodipodi:guide
       position="-90.74115,320.59346"
       orientation="0,-1"
       id="guide4246"
       inkscape:locked="false" /></sodipodi:namedview><path
     d="m 496.63476,62.82908 c 0,14.070668 -0.006,24.538763 -3.80038,32.371419 -3.79818,7.840171 -11.31187,12.819831 -25.54128,16.084081 -14.23052,3.26399 -35.93986,4.98748 -70.11942,5.85871 -34.14688,0.87023 -79.78304,0.87173 -141.12486,0.87173 -61.34181,0 -106.97797,-0.002 -141.12486,-0.87173 C 80.744515,116.27206 59.034627,114.54857 44.805002,111.28458 30.575377,108.02033 23.061149,103.04067 19.263481,95.200499 15.469299,87.367843 15.462877,76.899748 15.462877,62.82908 c 0,-14.070667 0.0064,-24.538767 3.800604,-32.371425 C 23.061149,22.617531 30.575377,17.637687 44.805002,14.373676 59.034627,11.109664 80.744515,9.3860406 114.92396,8.5149263 149.07085,7.6446106 194.70701,7.643138 256.04882,7.643138 c 61.34182,0 106.97798,0.0015 141.12486,0.8717883 34.17956,0.8711143 55.8889,2.5947377 70.11942,5.8587497 14.22941,3.264011 21.7431,8.243855 25.54128,16.083979 3.79384,7.832658 3.80038,18.300758 3.80038,32.371425 z"
     fill="#d8f6ff"
     stroke="#32a8eb"
     stroke-width="7.24473"
     stroke-linejoin="round"
     id="path2" /><text
     xml:space="preserve"
     id="text1721"
     style="font-style:normal;font-variant:normal;font-weight:normal;font-stretch:normal;font-size:40px;line-height:1.25;font-family:Cantarell;-inkscape-font-specification:Cantarell;letter-spacing:0px;word-spacing:0px;white-space:pre;shape-inside:url(#rect1723);shape-padding:6.44534;fill:#32a8eb;fill-opacity:1;stroke:none"
     transform="translate(39.485851,2.622263)"><tspan
       x="53.480469"
       y="72.18808"
       id="tspan517">!devbreak !stream</tspan></text><path
     d="m -242.5659,-176.74669 c -5,1.5 -5,-2.5 -7,-3 m 14,6 v -3.87 a 3.37,3.37 0 0 0 -0.94,-2.61 c 3.14,-0.35 6.44,-1.54 6.44,-7 a 5.44,5.44 0 0 0 -1.5,-3.75 5.07,5.07 0 0 0 -0.09,-3.77 c 0,0 -1.18,-0.35 -3.91,1.48 a 13.38,13.38 0 0 0 -7,0 c -2.73,-1.83 -3.91,-1.48 -3.91,-1.48 a 5.07,5.07 0 0 0 -0.09,3.77 5.44,5.44 0 0 0 -1.5,3.78 c 0,5.42 3.3,6.61 6.44,7 a 3.37,3.37 0 0 0 -0.94,2.58 v 3.87"
     fill="none"
     stroke-linecap="round"
     stroke-linejoin="round"
     stroke-width="2"
     id="path5408" /></svg>
