<?xml version="1.0" encoding="UTF-8" standalone="no"?>
<svg
   width="512"
   height="512"
   viewBox="0 0 512 512"
   fill="none"
   version="1.1"
   id="svg6"
   sodipodi:docname="k-logo.svg"
   inkscape:version="1.2.1 (9c6d41e410, 2022-07-14)"
   xmlns:inkscape="http://www.inkscape.org/namespaces/inkscape"
   xmlns:sodipodi="http://sodipodi.sourceforge.net/DTD/sodipodi-0.dtd"
   xmlns="http://www.w3.org/2000/svg"
   xmlns:svg="http://www.w3.org/2000/svg">
  <defs
     id="defs10" />
  <sodipodi:namedview
     id="namedview8"
     pagecolor="#ffffff"
     bordercolor="#666666"
     borderopacity="1.0"
     inkscape:showpageshadow="2"
     inkscape:pageopacity="0.0"
     inkscape:pagecheckerboard="0"
     inkscape:deskcolor="#d1d1d1"
     showgrid="false"
     inkscape:zoom="1.5800781"
     inkscape:cx="270.55624"
     inkscape:cy="265.80964"
     inkscape:window-width="1920"
     inkscape:window-height="1011"
     inkscape:window-x="26"
     inkscape:window-y="23"
     inkscape:window-maximized="0"
     inkscape:current-layer="svg6" />
  <path
     d="M477 256C477 312.348 476.994 354.269 473.509 385.636C470.02 417.033 463.118 436.975 450.047 450.047C436.975 463.118 417.033 470.02 385.636 473.509C354.269 476.994 312.348 477 256 477C199.652 477 157.731 476.994 126.364 473.509C94.9671 470.02 75.0246 463.118 61.9534 450.047C48.8822 436.975 41.9797 417.033 38.4912 385.636C35.0059 354.269 35 312.348 35 256C35 199.652 35.0059 157.731 38.4912 126.364C41.9797 94.9671 48.8822 75.0246 61.9534 61.9534C75.0246 48.8822 94.9671 41.9797 126.364 38.4912C157.731 35.0059 199.652 35 256 35C312.348 35 354.269 35.0059 385.636 38.4912C417.033 41.9797 436.975 48.8822 450.047 61.9534C463.118 75.0246 470.02 94.9671 473.509 126.364C476.994 157.731 477 199.652 477 256Z"
     fill="#D8F6FF"
     stroke="#32A8EB"
     stroke-width="8"
     stroke-linejoin="round"
     id="path2" />
  <text
     xml:space="preserve"
     style="font-style:normal;font-weight:normal;font-size:40px;line-height:1.25;font-family:sans-serif;letter-spacing:0px;word-spacing:0px;fill:#000000;fill-opacity:1;stroke:none"
     x="114.70705"
     y="120.19778"
     id="text997"><tspan
       sodipodi:role="line"
       id="tspan995"
       x="114.70705"
       y="120.19778" /></text>
  <text
     xml:space="preserve"
     style="font-style:normal;font-variant:normal;font-weight:300;font-stretch:normal;font-size:282px;line-height:1.25;font-family:Cantarell;-inkscape-font-specification:'Cantarell Light';letter-spacing:0px;word-spacing:0px;fill:#32a8eb;fill-opacity:1;stroke:none"
     x="166.50433"
     y="359.58713"
     id="text1001"><tspan
       sodipodi:role="line"
       id="tspan999"
       x="166.50433"
       y="359.58713"
       style="font-style:normal;font-variant:normal;font-weight:300;font-stretch:normal;font-size:282px;font-family:Cantarell;-inkscape-font-specification:'Cantarell Light';fill:#32a8eb;fill-opacity:1">K</tspan></text>
</svg>
