<?xml version="1.0" encoding="UTF-8" standalone="no"?>
<svg
   width="512"
   height="128"
   viewBox="0 0 512 128"
   fill="none"
   version="1.1"
   id="svg6"
   sodipodi:docname="social-spacebar.svg"
   xml:space="preserve"
   inkscape:export-filename="../../../Streaming/m-socials-spacebar.png"
   inkscape:export-xdpi="96"
   inkscape:export-ydpi="96"
   inkscape:version="1.2.1 (9c6d41e410, 2022-07-14)"
   xmlns:inkscape="http://www.inkscape.org/namespaces/inkscape"
   xmlns:sodipodi="http://sodipodi.sourceforge.net/DTD/sodipodi-0.dtd"
   xmlns="http://www.w3.org/2000/svg"
   xmlns:svg="http://www.w3.org/2000/svg"><defs
     id="defs10"><rect
       x="47.034356"
       y="29.82146"
       width="433.2521"
       height="106.86174"
       id="rect1723" /></defs><sodipodi:namedview
     id="namedview8"
     pagecolor="#ffffff"
     bordercolor="#666666"
     borderopacity="1.0"
     inkscape:showpageshadow="2"
     inkscape:pageopacity="0.0"
     inkscape:pagecheckerboard="0"
     inkscape:deskcolor="#d1d1d1"
     showgrid="false"
     showguides="true"
     inkscape:zoom="0.53999756"
     inkscape:cx="-282.40868"
     inkscape:cy="-296.29763"
     inkscape:window-width="1920"
     inkscape:window-height="1011"
     inkscape:window-x="26"
     inkscape:window-y="23"
     inkscape:window-maximized="0"
     inkscape:current-layer="svg6"><sodipodi:guide
       position="-90.74115,320.59346"
       orientation="0,-1"
       id="guide4246"
       inkscape:locked="false" /></sodipodi:namedview><path
     d="m 496.63476,62.82908 c 0,14.070668 -0.006,24.538763 -3.80038,32.371419 -3.79818,7.840171 -11.31187,12.819831 -25.54128,16.084081 -14.23052,3.26399 -35.93986,4.98748 -70.11942,5.85871 -34.14688,0.87023 -79.78304,0.87173 -141.12486,0.87173 -61.34181,0 -106.97797,-0.002 -141.12486,-0.87173 C 80.744515,116.27206 59.034627,114.54857 44.805002,111.28458 30.575377,108.02033 23.061149,103.04067 19.263481,95.200499 15.469299,87.367843 15.462877,76.899748 15.462877,62.82908 c 0,-14.070667 0.0064,-24.538767 3.800604,-32.371425 C 23.061149,22.617531 30.575377,17.637687 44.805002,14.373676 59.034627,11.109664 80.744515,9.3860406 114.92396,8.5149263 149.07085,7.6446106 194.70701,7.643138 256.04882,7.643138 c 61.34182,0 106.97798,0.0015 141.12486,0.8717883 34.17956,0.8711143 55.8889,2.5947377 70.11942,5.8587497 14.22941,3.264011 21.7431,8.243855 25.54128,16.083979 3.79384,7.832658 3.80038,18.300758 3.80038,32.371425 z"
     fill="#d8f6ff"
     stroke="#32a8eb"
     stroke-width="7.24473"
     stroke-linejoin="round"
     id="path2" /><text
     xml:space="preserve"
     id="text1721"
     style="font-style:normal;font-variant:normal;font-weight:normal;font-stretch:normal;font-size:40px;line-height:1.25;font-family:Cantarell;-inkscape-font-specification:Cantarell;letter-spacing:0px;word-spacing:0px;white-space:pre;shape-inside:url(#rect1723);shape-padding:6.44534;fill:#32a8eb;fill-opacity:1;stroke:none"
     transform="translate(85.39173,1.2333678)"><tspan
       x="53.480469"
       y="72.18808"
       id="tspan11420">@michalvankodev</tspan></text><path
     d="m -242.5659,-176.74669 c -5,1.5 -5,-2.5 -7,-3 m 14,6 v -3.87 a 3.37,3.37 0 0 0 -0.94,-2.61 c 3.14,-0.35 6.44,-1.54 6.44,-7 a 5.44,5.44 0 0 0 -1.5,-3.75 5.07,5.07 0 0 0 -0.09,-3.77 c 0,0 -1.18,-0.35 -3.91,1.48 a 13.38,13.38 0 0 0 -7,0 c -2.73,-1.83 -3.91,-1.48 -3.91,-1.48 a 5.07,5.07 0 0 0 -0.09,3.77 5.44,5.44 0 0 0 -1.5,3.78 c 0,5.42 3.3,6.61 6.44,7 a 3.37,3.37 0 0 0 -0.94,2.58 v 3.87"
     fill="none"
     stroke-linecap="round"
     stroke-linejoin="round"
     stroke-width="2"
     id="path5408" /><path
     d="m 43.83654,79.854451 c -5.900502,0 -10.704167,-1.306705 -13.242104,-2.679573 a 0.80061089,0.82702875 0 0 1 0.336257,-1.521733 30.71944,31.733093 0 0 0 12.697689,-3.672006 c -3.530695,-0.984165 -7.125437,-3.589305 -7.837981,-6.955312 a 0.80061089,0.82702875 0 0 1 1.016776,-0.967624 3.4666452,3.5810345 0 0 0 1.008769,0.09924 12.553579,12.967811 0 0 1 -5.956545,-10.470184 0.80061089,0.82702875 0 0 1 1.361039,-0.628542 v 0 q 0.57644,0.496217 1.19291,0.934542 a 13.290141,13.728677 0 0 1 -0.480366,-10.701752 0.80061089,0.82702875 0 0 1 1.353032,-0.231568 c 5.708356,6.872609 13.778513,10.015318 17.877641,9.874723 a 9.6953979,10.015318 0 0 1 -0.160122,-1.819463 9.8875445,10.213805 0 0 1 9.879538,-10.197264 11.472754,11.851322 0 0 1 7.149456,2.828438 15.900132,16.424791 0 0 0 1.601222,-0.471406 18.502118,19.112634 0 0 0 2.986278,-1.339787 0.80061089,0.82702875 0 0 1 1.056807,1.174381 32.216582,33.279637 0 0 1 -3.042322,3.878765 29.894811,30.881254 0 0 0 3.68281,-1.108219 0.80061089,0.82702875 0 0 1 0.968739,1.248814 20.887938,21.57718 0 0 1 -3.930999,4.135143 c -0.120092,3.928387 -3.082352,21.717775 -17.197122,26.696488 h -0.08807 a 42.040078,43.42728 0 0 1 -12.233335,1.893895 z m -9.511257,-2.952492 a 38.94972,40.234949 0 0 0 21.328274,-0.521028 v 0 C 69.263942,71.518002 71.857922,53.32337 71.753842,50.842284 a 0.80061089,0.82702875 0 0 1 0.320245,-0.702975 19.142606,19.774257 0 0 0 2.05757,-1.778112 c -1.240947,0.363893 -2.4899,0.612002 -2.818151,0.27292 a 0.80061089,0.82702875 0 0 1 -0.18414,-0.29773 7.7819379,8.0387194 0 0 0 -0.3923,-0.893191 0.80061089,0.82702875 0 0 1 0.24819,-1.050327 16.140316,16.6729 0 0 0 1.489136,-1.654057 l -0.336257,0.115784 a 17.829605,18.41793 0 0 1 -2.217692,0.628541 0.80061089,0.82702875 0 0 1 -0.800611,-0.28946 C 68.159099,43.953134 65.2769,42.571996 62.883073,42.571996 a 8.2542983,8.5266664 0 0 0 -7.958072,10.867158 0.80061089,0.82702875 0 0 1 -0.632482,1.042056 c -4.003055,0.727785 -12.729714,-2.108923 -19.270705,-9.246181 -0.992757,4.135143 0.520397,8.840937 2.77812,10.751373 a 0.80061089,0.82702875 0 0 1 -0.800611,1.389409 20.927969,21.618532 0 0 1 -3.266492,-1.893896 c 0.744568,3.581034 3.202443,6.558338 6.93329,8.33645 a 0.80061089,0.82702875 0 0 1 -0.07205,1.530003 10.351899,10.693482 0 0 1 -2.786126,0.413514 c 1.304996,2.563789 4.923757,4.565199 7.90203,4.88774 a 0.80061089,0.82702875 0 0 1 0.488372,1.405949 c -1.745331,1.802923 -6.805192,3.969737 -11.873059,4.846388 z M 32.652006,53.654181 Z"
     id="path6912"
     inkscape:transform-center-x="-1.0974857"
     inkscape:transform-center-y="0.2991276"
     style="fill:#32a8eb;fill-opacity:1;stroke:#32a8eb;stroke-width:0.813713;stroke-dasharray:none;stroke-opacity:1" /><path
     d="M 102.78246,76.704709 C 92.521391,79.805178 92.521391,71.53726 88.416959,70.50377 m 28.731011,12.401876 v -7.99921 a 6.9159613,6.9657205 0 0 0 -1.92909,-5.394814 c 6.44396,-0.723445 13.21626,-3.18315 13.21626,-14.468857 a 11.164045,11.244368 0 0 0 -3.07833,-7.751173 10.404725,10.479585 0 0 0 -0.18469,-7.792512 c 0,0 -2.42161,-0.723442 -8.02415,3.059129 a 27.458624,27.656183 0 0 0 -14.36551,0 C 97.17991,38.775638 94.7583,39.49908 94.7583,39.49908 a 10.404725,10.479585 0 0 0 -0.184696,7.792512 11.164045,11.244368 0 0 0 -3.078315,7.813183 c 0,11.203027 6.772291,13.662733 13.216251,14.468855 a 6.9159613,6.9657205 0 0 0 -1.92908,5.332806 v 7.99921"
     fill="none"
     stroke-linecap="round"
     stroke-linejoin="round"
     stroke-width="5.29081"
     id="path10835"
     style="fill:none;fill-opacity:1;stroke:#32a8eb;stroke-width:2.33565;stroke-dasharray:none;stroke-opacity:1" /></svg>
