<svg width="200" height="200" viewBox="0 0 200 200" fill="none" xmlns="http://www.w3.org/2000/svg">
<g clip-path="url(#clip0_6915_3092)">
<path d="M143.302 165.108C149.717 154.118 152.748 142.082 152.748 130.221C131.702 142.257 104.988 143.129 82.448 130.221L47.2539 190.663C80.8663 209.894 123.881 198.469 143.302 165.108Z" fill="url(#paint0_linear_6915_3092)"/>
<path d="M56.7005 34.8919C50.2856 45.9249 47.2539 57.9174 47.2539 69.779C68.3001 57.7429 95.0142 56.8708 117.554 69.779L152.704 9.33706C119.092 -9.89447 76.0771 1.53107 56.7005 34.8919Z" fill="url(#paint1_linear_6915_3092)"/>
<path d="M152.704 130.221C131.658 142.257 104.944 143.13 82.4041 130.221C59.864 117.313 47.2539 93.8951 47.2539 69.7793C68.3001 57.7433 95.0142 56.8711 117.554 69.7793C140.094 82.6876 152.704 106.149 152.704 130.221Z" fill="#EE0000"/>
</g>
<defs>
<linearGradient id="paint0_linear_6915_3092" x1="48.3523" y1="191.011" x2="116.335" y2="69.7771" gradientUnits="userSpaceOnUse">
<stop stop-color="#F40000" stop-opacity="0.1"/>
<stop offset="1" stop-color="#F40000"/>
</linearGradient>
<linearGradient id="paint1_linear_6915_3092" x1="82.6238" y1="130.395" x2="151.917" y2="9.36607" gradientUnits="userSpaceOnUse">
<stop stop-color="#F40000"/>
<stop offset="1" stop-color="#F40000" stop-opacity="0.1"/>
</linearGradient>
<clipPath id="clip0_6915_3092">
<rect width="105.495" height="200" fill="white" transform="translate(47.2539)"/>
</clipPath>
</defs>
</svg>