<?xml version="1.0" encoding="utf-8"?>
<!-- Generator: Adobe Illustrator 19.1.0, SVG Export Plug-In . SVG Version: 6.00 Build 0)  -->
<svg version="1.1" id="Layer_1" xmlns="http://www.w3.org/2000/svg" xmlns:xlink="http://www.w3.org/1999/xlink" x="0px" y="0px"
	 viewBox="0 0 172 75" style="enable-background:new 0 0 172 75;" xml:space="preserve">
<style type="text/css">
	.st0{clip-path:url(#SVGID_2_);fill:url(#SVGID_3_);}
	.st1{clip-path:url(#SVGID_5_);fill:url(#SVGID_6_);}
	.st2{fill:#A72C32;}
	.st3{fill:#ED1C24;}
</style>
<g>
	<defs>
		<path id="SVGID_1_" d="M122.7,21.2C122.7,21.2,122.7,21.2,122.7,21.2c-6.7-7.5-15-14.7-24.9-17.4l0,0c15.2-4.4,29-1.4,41,15.8l0,0
			l-3,2.5C132,25.5,126.1,25.1,122.7,21.2L122.7,21.2z"/>
	</defs>
	<clipPath id="SVGID_2_">
		<use xlink:href="#SVGID_1_"  style="overflow:visible;"/>
	</clipPath>
	
		<linearGradient id="SVGID_3_" gradientUnits="userSpaceOnUse" x1="10.3229" y1="463.0904" x2="10.6827" y2="463.0904" gradientTransform="matrix(56.4463 43.9349 -41.9345 53.8764 18943.2227 -25399.9766)">
		<stop  offset="0" style="stop-color:#7C1C1E"/>
		<stop  offset="1" style="stop-color:#C9234A"/>
	</linearGradient>
	<polygon class="st0" points="85.2,15.7 123.4,45.4 151.5,9.2 113.3,-20.5 	"/>
</g>
<g>
	<defs>
		<path id="SVGID_4_" d="M114.3,2.3c-5.5-1-23.6-1.5-28.9-0.6c-8.2,1.8-24,15.5-51.9,40.7C58.3,24.9,82.1,4.8,114.3,2.3"/>
	</defs>
	<clipPath id="SVGID_5_">
		<use xlink:href="#SVGID_4_"  style="overflow:visible;"/>
	</clipPath>
	
		<linearGradient id="SVGID_6_" gradientUnits="userSpaceOnUse" x1="12.5912" y1="456.284" x2="13.1524" y2="456.284" gradientTransform="matrix(-120.901 74.4084 -61.6717 -100.2061 29764.8125 44789.3945)">
		<stop  offset="0" style="stop-color:#ED1B2F"/>
		<stop  offset="1" style="stop-color:#9E0B0F"/>
	</linearGradient>
	<polygon class="st1" points="92.1,-35.3 14.9,12.2 55.7,78.4 132.8,31 	"/>
</g>
<path class="st2" d="M109.5,49.3l-8.2-18.1c-1.3,0-2.6,0-3.9,0l10.3,22L109.5,49.3z"/>
<polygon class="st3" points="25.1,31.2 21.3,31.2 13.1,49.3 4.9,31.2 1,31.2 13,57.1 13.1,57.1 "/>
<rect x="59.5" y="31.2" class="st3" width="3.5" height="25.5"/>
<path class="st3" d="M121.5,31.2c-3.2,0-4.1,0.7-5.4,3.7l-8.4,18.3l1.8,3.9C113.5,48.5,117.5,39.8,121.5,31.2"/>
<path class="st3" d="M171.1,31.2h-15.8v25.5h16.1v-3.3H168h-9.2v-8.1h10.8v-3.2h-10.8c0-2.6,0-5.2,0-7.7c4.1,0,8.2,0,12.3,0
	C171.1,33.4,171.1,32.3,171.1,31.2"/>
<path class="st2" d="M136.8,71.5l0.5,1.3h-1.1L136.8,71.5z M136.8,69.8L136.8,69.8l-2.1,4.3h1l0.3-0.7h1.6l0.3,0.7h1L136.8,69.8z
	 M132.3,69.9h-0.9v4.3h0.9V69.9z M127.2,70.6c0.1,0,0.3,0,0.4,0.1c0.1,0,0.2,0.1,0.2,0.2c0.1,0.1,0.1,0.2,0.1,0.3
	c0,0.1,0,0.2-0.1,0.3c-0.1,0.1-0.1,0.2-0.2,0.2c-0.1,0-0.2,0.1-0.4,0.1h-0.7v-1.2H127.2z M127.3,69.9h-1.7v4.3h0.9v-1.5h0.6l0.9,1.5
	h1l-1-1.6c0.2-0.1,0.3-0.2,0.4-0.3c0.1-0.1,0.2-0.3,0.3-0.4c0.1-0.2,0.1-0.3,0.1-0.5c0-0.2,0-0.4-0.1-0.6c-0.1-0.2-0.2-0.3-0.3-0.4
	c-0.1-0.1-0.3-0.2-0.5-0.3C127.7,69.9,127.5,69.9,127.3,69.9z M122.4,68.9h-1l-0.7,0.7h0.8L122.4,68.9z M121.1,71.5l0.5,1.3h-1.1
	L121.1,71.5z M121.1,69.8L121.1,69.8l-2.1,4.3h1l0.3-0.7h1.6l0.3,0.7h1L121.1,69.8z M115.2,69.9h-0.9v4.3h2.7v-0.8h-1.8V69.9z
	 M111.7,69.9h-2.7v4.3h2.8v-0.8h-1.9v-1h1.6v-0.7h-1.6v-0.9h1.9V69.9z M104.9,69.8c-0.3,0-0.5,0-0.7,0.1c-0.2,0.1-0.4,0.2-0.6,0.3
	c-0.2,0.1-0.3,0.3-0.5,0.5c-0.1,0.2-0.2,0.4-0.3,0.6c-0.1,0.2-0.1,0.5-0.1,0.7c0,0.3,0,0.5,0.1,0.7c0.1,0.2,0.2,0.4,0.3,0.6
	c0.1,0.2,0.3,0.3,0.5,0.5c0.2,0.1,0.4,0.2,0.6,0.3c0.2,0.1,0.5,0.1,0.7,0.1c0.2,0,0.4,0,0.6-0.1c0.2,0,0.4-0.1,0.5-0.2
	c0.2-0.1,0.3-0.2,0.5-0.4l-0.5-0.6c-0.1,0.1-0.2,0.2-0.3,0.2c-0.1,0.1-0.2,0.1-0.3,0.2c-0.1,0-0.3,0.1-0.4,0.1c-0.2,0-0.4,0-0.5-0.1
	c-0.2-0.1-0.3-0.2-0.4-0.3c-0.1-0.1-0.2-0.3-0.3-0.4c-0.1-0.2-0.1-0.4-0.1-0.6c0-0.2,0-0.4,0.1-0.6c0.1-0.2,0.1-0.3,0.3-0.4
	c0.1-0.1,0.2-0.2,0.4-0.3c0.2-0.1,0.3-0.1,0.5-0.1c0.1,0,0.3,0,0.4,0.1c0.1,0,0.2,0.1,0.3,0.2c0.1,0.1,0.2,0.2,0.3,0.2l0.6-0.6
	c-0.1-0.1-0.3-0.3-0.4-0.4c-0.2-0.1-0.3-0.2-0.5-0.2C105.3,69.8,105.1,69.8,104.9,69.8z M100.2,69.9h-0.9v2.4l-2.5-2.4h0v4.3h0.9
	v-2.4l2.5,2.4h0V69.9z M92.3,71.5l0.5,1.3h-1.1L92.3,71.5z M92.3,69.8L92.3,69.8l-2.1,4.3h1l0.3-0.7h1.6l0.3,0.7h1L92.3,69.8z
	 M88,69.9h-1l-1.4,2.5v-2.5h-0.9v4.3h0.7l0.9-1.4l1,1.4h1.1l-1.5-2.2L88,69.9z M78.1,68.9h-1l-0.7,0.7h0.8L78.1,68.9z M76.9,71.5
	l0.5,1.3h-1.1L76.9,71.5z M76.9,69.8L76.9,69.8l-2.1,4.3h1l0.3-0.7h1.6l0.3,0.7h1L76.9,69.8z M72.4,69.9h-0.9v2.4L69,69.8h0v4.3h0.9
	v-2.4l2.5,2.4h0V69.9z M66.5,69.9h-1l-1.1,2.5l-1.1-2.5h-1l2,4.3h0L66.5,69.9z M58.3,70.6c0.2,0,0.4,0,0.5,0.1
	c0.2,0.1,0.3,0.2,0.4,0.3c0.1,0.1,0.2,0.3,0.3,0.4c0.1,0.2,0.1,0.4,0.1,0.6c0,0.2,0,0.4-0.1,0.6c-0.1,0.2-0.2,0.3-0.3,0.4
	c-0.1,0.1-0.3,0.2-0.4,0.3c-0.2,0.1-0.3,0.1-0.5,0.1c-0.2,0-0.4,0-0.5-0.1c-0.2-0.1-0.3-0.2-0.4-0.3c-0.1-0.1-0.2-0.3-0.3-0.4
	C57,72.4,57,72.2,57,72c0-0.2,0-0.4,0.1-0.6c0.1-0.2,0.2-0.3,0.3-0.4c0.1-0.1,0.3-0.2,0.4-0.3C57.9,70.6,58.1,70.6,58.3,70.6z
	 M58.3,69.8c-0.3,0-0.6,0.1-0.9,0.2c-0.3,0.1-0.5,0.3-0.7,0.5c-0.2,0.2-0.3,0.4-0.5,0.7c-0.1,0.3-0.2,0.6-0.2,0.9
	c0,0.3,0.1,0.6,0.2,0.9c0.1,0.3,0.3,0.5,0.5,0.7c0.2,0.2,0.4,0.3,0.7,0.5c0.3,0.1,0.6,0.2,0.9,0.2c0.3,0,0.5,0,0.7-0.1
	c0.2-0.1,0.4-0.2,0.6-0.3c0.2-0.1,0.3-0.3,0.5-0.5c0.1-0.2,0.2-0.4,0.3-0.6c0.1-0.2,0.1-0.5,0.1-0.7c0-0.3,0-0.5-0.1-0.7
	c-0.1-0.2-0.2-0.4-0.3-0.6c-0.1-0.2-0.3-0.3-0.5-0.5c-0.2-0.1-0.4-0.2-0.6-0.3C58.7,69.8,58.5,69.8,58.3,69.8z M53.8,69.9h-3.6v0.8
	h1.4v3.5h0.9v-3.5h1.4V69.9z M46.4,69.8c-0.2,0-0.4,0-0.6,0.1c-0.2,0.1-0.3,0.2-0.5,0.3c-0.1,0.1-0.2,0.3-0.3,0.4
	c-0.1,0.2-0.1,0.3-0.1,0.5c0,0.2,0,0.3,0.1,0.4c0,0.1,0.1,0.3,0.2,0.4c0.1,0.1,0.3,0.2,0.4,0.3c0.2,0.1,0.4,0.2,0.7,0.2
	c0.2,0,0.4,0.1,0.5,0.1c0.1,0,0.2,0.1,0.3,0.2c0.1,0.1,0.1,0.1,0.1,0.2c0,0.2-0.1,0.3-0.2,0.4c-0.1,0.1-0.3,0.1-0.5,0.1
	c-0.1,0-0.3,0-0.4-0.1c-0.1,0-0.3-0.1-0.4-0.2c-0.1-0.1-0.2-0.2-0.3-0.3l-0.5,0.7c0.1,0.1,0.3,0.2,0.5,0.3c0.2,0.1,0.4,0.1,0.6,0.2
	c0.2,0,0.4,0.1,0.6,0.1c0.3,0,0.5,0,0.7-0.1c0.2-0.1,0.4-0.2,0.5-0.3c0.1-0.1,0.2-0.3,0.3-0.4C48,73.2,48,73,48,72.8
	c0-0.2,0-0.3-0.1-0.4c0-0.1-0.1-0.3-0.2-0.4c-0.1-0.1-0.3-0.2-0.4-0.3c-0.2-0.1-0.4-0.1-0.7-0.2c-0.2,0-0.3-0.1-0.4-0.1
	c-0.1,0-0.2-0.1-0.2-0.1c-0.1,0-0.1-0.1-0.1-0.1c0,0,0-0.1,0-0.2c0-0.1,0-0.2,0.1-0.3c0-0.1,0.1-0.1,0.2-0.2c0.1,0,0.2,0,0.3,0
	c0.2,0,0.3,0,0.4,0c0.1,0,0.2,0.1,0.3,0.1c0.1,0.1,0.2,0.1,0.3,0.2l0.5-0.7c-0.1-0.1-0.3-0.2-0.4-0.2c-0.2-0.1-0.3-0.1-0.5-0.2
	C46.8,69.8,46.6,69.8,46.4,69.8z M42.4,69.9h-2.7v4.3h2.8v-0.8h-1.9v-1h1.6v-0.7h-1.6v-0.9h1.9V69.9z M35.7,69.8
	c-0.3,0-0.5,0-0.7,0.1c-0.2,0.1-0.4,0.2-0.6,0.3c-0.2,0.1-0.3,0.3-0.5,0.5c-0.1,0.2-0.2,0.4-0.3,0.6c-0.1,0.2-0.1,0.5-0.1,0.7
	c0,0.3,0,0.5,0.1,0.7c0.1,0.2,0.2,0.4,0.3,0.6c0.1,0.2,0.3,0.3,0.5,0.5c0.2,0.1,0.4,0.2,0.6,0.3c0.2,0.1,0.5,0.1,0.7,0.1
	c0.2,0,0.4,0,0.6-0.1c0.2,0,0.4-0.1,0.5-0.2c0.2-0.1,0.3-0.2,0.5-0.4l-0.5-0.6c-0.1,0.1-0.2,0.2-0.3,0.2c-0.1,0.1-0.2,0.1-0.3,0.2
	c-0.1,0-0.3,0.1-0.4,0.1c-0.2,0-0.4,0-0.5-0.1c-0.2-0.1-0.3-0.2-0.4-0.3c-0.1-0.1-0.2-0.3-0.3-0.4c-0.1-0.2-0.1-0.4-0.1-0.6
	c0-0.2,0-0.4,0.1-0.6c0.1-0.2,0.1-0.3,0.3-0.4c0.1-0.1,0.2-0.2,0.4-0.3c0.2-0.1,0.3-0.1,0.5-0.1c0.1,0,0.3,0,0.4,0.1
	c0.1,0,0.2,0.1,0.3,0.2c0.1,0.1,0.2,0.2,0.3,0.2l0.6-0.6c-0.1-0.1-0.3-0.3-0.4-0.4c-0.2-0.1-0.3-0.2-0.5-0.2
	C36.1,69.8,35.9,69.8,35.7,69.8z"/>
</svg>
