<svg xmlns="http://www.w3.org/2000/svg" class="u-svg-content" viewBox="0 0 184 187" x="0px" y="0px" style="width: 1em; height: 1em;"><path fill="#FEFFFE" opacity="1.000000" stroke="none" d="
M111.000000,188.000000 
	C74.000000,188.000000 37.500004,188.000000 1.000005,188.000000 
	C1.000003,125.666672 1.000003,63.333344 1.000002,1.000013 
	C62.333324,1.000009 123.666649,1.000009 184.999969,1.000004 
	C184.999985,63.333317 184.999985,125.666634 185.000000,187.999969 
	C160.500000,188.000000 136.000000,188.000000 111.000000,188.000000 
M141.418015,133.928207 
	C127.767067,142.503525 114.455452,151.692993 100.367393,159.477219 
	C86.943886,166.894196 72.253189,170.657486 56.609383,168.880310 
	C55.957951,168.806305 55.270107,169.052765 53.888592,169.252869 
	C95.326988,189.169525 143.651657,174.202332 165.835312,135.157486 
	C187.973633,96.192459 174.065491,51.700832 151.058075,32.699059 
	C151.870972,47.383453 145.096802,58.609764 134.719620,67.665199 
	C127.865273,73.646515 120.554497,79.581230 112.480988,83.588264 
	C96.438011,91.550682 79.782196,98.298607 63.247910,105.234390 
	C59.770390,106.693146 57.497551,108.087372 57.806816,112.213203 
	C58.016811,115.014671 57.524277,117.875526 57.804279,120.663788 
	C58.737183,129.953735 63.131657,135.090820 72.435020,136.152100 
	C78.101418,136.798462 84.129677,136.459320 89.714272,135.257034 
	C113.780266,130.075912 135.140045,118.498703 156.131866,106.174423 
	C157.463760,105.392456 158.804474,104.625534 160.133087,103.856255 
	C160.133087,108.261963 160.524628,112.130524 159.988434,115.865921 
	C159.658905,118.161545 158.418015,120.841133 156.701431,122.323769 
	C152.050400,126.340919 146.927032,129.811172 141.418015,133.928207 
M7.504056,83.100655 
	C5.341846,103.972412 9.647369,123.228951 22.148375,141.683990 
	C6.351274,81.329971 68.548477,15.291668 127.692780,16.490648 
	C84.716667,-7.122169 16.257736,18.354082 7.504056,83.100655 
M99.857971,43.268894 
	C82.759735,53.964348 71.778099,69.661499 63.192806,87.355751 
	C80.470497,79.698120 97.136421,71.304016 110.466728,57.889004 
	C113.839012,54.495293 116.367683,49.897110 118.158737,45.403858 
	C119.866737,41.118980 117.462463,38.490543 112.833977,39.242863 
	C108.643143,39.924049 104.625725,41.672096 99.857971,43.268894 
z"></path><path fill="#63B224" opacity="1.000000" stroke="none" d="
M141.704498,133.713257 
	C146.927032,129.811172 152.050400,126.340919 156.701431,122.323769 
	C158.418015,120.841133 159.658905,118.161545 159.988434,115.865921 
	C160.524628,112.130524 160.133087,108.261963 160.133087,103.856255 
	C158.804474,104.625534 157.463760,105.392456 156.131866,106.174423 
	C135.140045,118.498703 113.780266,130.075912 89.714272,135.257034 
	C84.129677,136.459320 78.101418,136.798462 72.435020,136.152100 
	C63.131657,135.090820 58.737183,129.953735 57.804279,120.663788 
	C57.524277,117.875526 58.016811,115.014671 57.806816,112.213203 
	C57.497551,108.087372 59.770390,106.693146 63.247910,105.234390 
	C79.782196,98.298607 96.438011,91.550682 112.480988,83.588264 
	C120.554497,79.581230 127.865273,73.646515 134.719620,67.665199 
	C145.096802,58.609764 151.870972,47.383453 151.058075,32.699059 
	C174.065491,51.700832 187.973633,96.192459 165.835312,135.157486 
	C143.651657,174.202332 95.326988,189.169525 53.888592,169.252869 
	C55.270107,169.052765 55.957951,168.806305 56.609383,168.880310 
	C72.253189,170.657486 86.943886,166.894196 100.367393,159.477219 
	C114.455452,151.692993 127.767067,142.503525 141.704498,133.713257 
z"></path><path fill="#64B225" opacity="1.000000" stroke="none" d="
M7.593564,82.658463 
	C16.257736,18.354082 84.716667,-7.122169 127.692780,16.490648 
	C68.548477,15.291668 6.351274,81.329971 22.148375,141.683990 
	C9.647369,123.228951 5.341846,103.972412 7.593564,82.658463 
z"></path><path fill="#64B226" opacity="1.000000" stroke="none" d="
M100.194901,43.109314 
	C104.625725,41.672096 108.643143,39.924049 112.833977,39.242863 
	C117.462463,38.490543 119.866737,41.118980 118.158737,45.403858 
	C116.367683,49.897110 113.839012,54.495293 110.466728,57.889004 
	C97.136421,71.304016 80.470497,79.698120 63.192806,87.355751 
	C71.778099,69.661499 82.759735,53.964348 100.194901,43.109314 
z"></path></svg>
