<svg width="94" height="52" viewBox="0 0 94 52" fill="none" xmlns="http://www.w3.org/2000/svg">
<path fill-rule="evenodd" clip-rule="evenodd" d="M31.0664 9.61772C27.7575 12.0474 25.6716 15.1667 25.2739 19.2015C24.8933 23.0511 26.2065 26.3973 28.8399 29.2436C32.2825 32.9638 36.7149 34.7663 41.8422 35.0963C44.2152 35.2444 46.5963 34.9746 48.868 34.3003C48.956 34.2725 49.05 34.2664 49.1411 34.2827C49.2322 34.299 49.3176 34.3371 49.3892 34.3935C50.1268 34.8642 50.9227 35.2446 51.7586 35.5261L51.8637 35.6358C51.8329 35.7531 51.7917 35.8693 51.7734 35.9877C51.6055 37.096 51.3319 38.1871 50.9562 39.2474C50.1561 41.5181 49.0429 43.6331 47.4633 45.5046C46.4587 46.6921 45.4151 47.8477 44.0344 48.6634C43.4172 49.0274 42.728 49.2741 42.1874 49.7599C41.976 49.9528 41.7302 49.8092 41.5656 49.6316C41.4434 49.492 41.3422 49.3366 41.265 49.17C40.8959 48.4277 40.393 47.7644 39.9118 47.0868C38.8683 45.6274 37.8087 44.1802 36.5972 42.8392C35.3857 41.4983 34.197 40.1728 32.774 39.0632C30.9453 37.6433 29.1165 36.2289 27.026 35.1643C25.083 34.1775 23.14 33.1908 20.9352 32.8366C20.6049 32.784 20.4255 32.8531 20.2929 33.1294C20.1528 33.4525 19.9473 33.7458 19.6882 33.9922C17.8652 35.6029 15.7405 35.9822 13.402 35.3496C12.2144 35.0284 11.2418 34.41 10.8177 33.2182C10.6954 32.875 10.4303 32.8542 10.132 32.8892C9.20696 32.9898 8.29812 33.1978 7.42543 33.5087C6.31541 33.9048 5.24441 34.395 4.22514 34.9735C4.07084 35.0623 3.89826 35.1314 3.89711 34.8759C3.89711 34.4593 3.82168 34.0416 4.05941 33.6337C4.83466 32.3257 5.89131 31.1909 7.15912 30.305C7.50439 30.0646 7.82509 29.7933 8.11692 29.4947C9.52505 28.02 9.94566 26.3151 9.43932 24.3668C9.06672 22.9414 8.34666 21.6586 7.86433 20.2815C7.48486 19.2004 7.17055 18.0996 7.23341 16.955C7.30137 15.6486 7.6932 14.3766 8.37637 13.2447C8.83356 12.4772 9.37303 11.77 10.132 11.2426C11.2646 10.4543 12.5447 10.1681 13.9254 10.1857C15.2158 10.2021 16.2114 9.72298 16.8057 8.56955C17.1852 7.82946 17.6801 7.18258 18.4276 6.72427C20.4415 5.48751 22.6268 5.13446 24.955 5.54781C26.8443 5.88441 28.5199 6.62011 29.8697 7.98406C30.3418 8.45881 30.6801 9.02566 31.1601 9.48506L31.0664 9.61772ZM22.7925 15.7577C22.221 14.7534 21.5353 13.8433 20.326 13.4991C19.0002 13.1208 17.7715 13.3894 16.6548 14.1503C15.3039 15.068 14.4866 16.3289 14.0969 17.8573C14.0043 18.2169 14.074 18.5842 14.0386 18.9461C13.9963 19.3923 13.9094 19.4285 13.5048 19.2388C13.0808 19.0415 12.6373 18.8967 12.2099 19.2169C11.9616 19.3931 11.7675 19.6304 11.6482 19.9037C11.5289 20.1769 11.4888 20.4761 11.5321 20.7694C11.6532 21.8658 12.307 22.7199 12.9939 23.5236C14.5415 25.3371 16.5051 26.6945 18.5556 27.9257C20.1351 28.873 21.7639 28.6264 23.1583 27.4038C24.3229 26.382 24.7447 25.1101 24.6761 23.0182C24.4521 20.9328 24.2018 18.218 22.7925 15.7577ZM18.9167 33.41C19.5751 32.8224 19.5271 32.1853 19.3556 31.4781C19.1956 30.8137 19.1876 30.1306 19.0951 29.4585C19.071 29.293 19.039 29.1702 18.8665 29.1011C17.1863 28.4169 15.8342 27.2701 14.4272 26.2011C14.2752 26.0914 14.1106 25.8579 13.922 25.9577C13.77 26.0388 13.8557 26.2965 13.866 26.4719C13.9803 28.4323 13.1585 30.1317 12.2659 31.8126C12.2304 31.8794 12.1779 31.9386 12.1401 32.0044C11.5687 32.9912 11.7401 33.5394 12.7813 34.115C13.5734 34.5536 14.4398 34.6632 15.3587 34.7257C16.6583 34.6095 17.8869 34.3277 18.9167 33.4078V33.41Z" fill="#00583D"/>
<path fill-rule="evenodd" clip-rule="evenodd" d="M51.649 35.5369C52.0355 33.6107 51.8979 31.7084 51.0113 29.9448C49.4198 26.7884 46.7655 24.9587 43.0892 24.5566C41.2989 24.3604 39.5062 24.497 37.7158 24.601C36.238 24.6867 34.7705 24.8547 33.2882 24.755C31.1931 24.614 29.945 23.3599 29.9177 21.3568C29.904 20.3596 30.2201 19.4339 30.5793 18.5191C31.0863 17.2281 31.6683 15.9599 31.8672 14.5768C32.1025 12.9509 31.9604 11.377 31.0715 9.92346C27.7806 12.3255 25.706 15.4093 25.3104 19.3981C24.9319 23.2038 26.238 26.512 28.8571 29.3259C32.281 33.0037 36.6893 34.7857 41.7888 35.112C44.1488 35.2584 46.5171 34.9916 48.7764 34.325C48.864 34.2975 48.9574 34.2915 49.048 34.3076C49.1386 34.3237 49.2235 34.3614 49.2948 34.4172C50.0276 34.8823 50.8185 35.2584 51.649 35.5369V35.5369Z" fill="#00583D" stroke="#00583D" stroke-width="0.935654" stroke-miterlimit="10"/>
<path fill-rule="evenodd" clip-rule="evenodd" d="M26.8656 50.2607C12.8963 50.2607 1.74219 39.3765 1.74219 25.9761C1.74219 12.5756 12.8117 1.70132 26.781 1.70132C40.7503 1.70132 51.8198 12.5559 51.8198 25.9541V50.3001L26.8656 50.2607Z" stroke="#00583D" stroke-width="2" stroke-miterlimit="10"/>
<path d="M60.6039 22.9185C60.6175 22.876 60.6433 22.838 60.6782 22.8089C60.7079 22.7859 60.7239 22.788 60.7274 22.8089C60.7399 22.8089 60.7422 22.8253 60.7342 22.8648C60.8382 22.8754 60.9433 22.8691 61.0451 22.8462C61.1081 22.8621 61.1697 22.883 61.2291 22.9087C61.2721 22.9313 61.3208 22.9419 61.3697 22.9394C61.4097 22.947 61.4726 22.9547 61.5583 22.9635C61.644 22.9722 61.7206 22.9788 61.7869 22.9832C61.7856 22.9706 61.7809 22.9585 61.7732 22.9481C61.7656 22.9372 61.7605 22.9249 61.7583 22.9119C61.7926 22.9391 61.8229 22.9704 61.8486 23.0051C61.8653 23.0252 61.8876 23.0404 61.9128 23.0489C61.9381 23.0574 61.9653 23.059 61.9915 23.0534C62.0916 23.2189 62.1492 23.405 62.1595 23.5961C62.1721 23.785 62.1637 23.9747 62.1344 24.1619C62.1138 24.5149 62.0944 24.8362 62.0726 25.1256C62.0509 25.4151 62.0315 25.7001 62.0155 25.9764C61.9995 26.2527 61.9823 26.5312 61.9663 26.8075C61.9503 27.0838 61.9229 27.3875 61.8875 27.7176L61.9309 27.5991C61.9303 27.8043 61.9173 28.0094 61.892 28.2131C61.8671 28.3972 61.8648 28.5834 61.8852 28.7679C61.9014 29.0852 61.8899 29.4031 61.8509 29.7185C61.8112 30.0783 61.799 30.4403 61.8143 30.8018C61.8605 30.8159 61.9092 30.821 61.9574 30.8169C62.0057 30.8127 62.0527 30.7994 62.0955 30.7777C62.2009 30.7353 62.3138 30.7126 62.4281 30.7108C62.4738 30.7557 62.4635 30.781 62.3995 30.7886C62.4082 30.7946 62.4181 30.7987 62.4285 30.8008C62.4389 30.8029 62.4497 30.8028 62.4601 30.8007V30.782V30.8007C62.4921 30.8467 62.5161 30.838 62.5344 30.7733C62.591 30.7948 62.6528 30.8005 62.7127 30.7897C62.7869 30.7801 62.8625 30.7903 62.931 30.8193L63.2922 30.8895C63.4086 30.9118 63.5232 30.9422 63.6351 30.9805C63.6351 31.0057 63.6351 31.0178 63.6202 31.02C63.6053 31.0222 63.6031 31.0342 63.6065 31.0583C63.6212 31.0751 63.6402 31.0878 63.6617 31.0951C63.6832 31.1025 63.7064 31.1042 63.7288 31.1C63.7392 31.0975 63.75 31.0973 63.7605 31.0994C63.7709 31.1016 63.7807 31.106 63.7891 31.1123C63.7975 31.1187 63.8043 31.1268 63.8089 31.1361C63.8135 31.1454 63.8158 31.1555 63.8157 31.1658C63.7928 31.1936 63.7711 31.2023 63.7505 31.1921C63.7396 31.1872 63.7276 31.1853 63.7156 31.1867C63.7037 31.188 63.6924 31.1926 63.6831 31.1998V31.2184C63.6831 31.2308 63.6808 31.2374 63.6762 31.2382C63.6694 31.2382 63.6671 31.2458 63.6682 31.2579C63.6688 31.2689 63.6737 31.2792 63.682 31.2867C63.6903 31.2943 63.7013 31.2985 63.7128 31.2985C63.7432 31.3045 63.7718 31.3173 63.7962 31.3357C63.7421 31.3683 63.6769 31.3794 63.6145 31.3664C63.5413 31.3566 63.4842 31.3478 63.4442 31.3401C63.4442 31.3653 63.4442 31.3774 63.4305 31.3796C63.4168 31.3818 63.4122 31.3939 63.4156 31.418C63.4181 31.431 63.4236 31.4433 63.4315 31.4542C63.4395 31.465 63.4498 31.474 63.4617 31.4807C63.4736 31.4874 63.4869 31.4915 63.5007 31.4928C63.5144 31.494 63.5283 31.4925 63.5413 31.4881C63.57 31.4805 63.6006 31.483 63.6275 31.4953C63.6544 31.5076 63.6758 31.5288 63.6876 31.555C63.5433 31.597 63.3913 31.6086 63.2419 31.589C63.0788 31.5702 62.9144 31.5647 62.7504 31.5726C62.6693 31.5853 62.5916 31.6132 62.5218 31.6548C62.4075 31.6691 62.3207 31.6822 62.2635 31.6954C62.2151 31.7053 62.1679 31.7204 62.1229 31.7403C62.0852 31.7568 62.0395 31.7743 61.9835 31.794C61.9275 31.8138 61.8418 31.8357 61.7275 31.862C61.7355 31.9234 61.7457 31.953 61.7583 31.9519C61.7492 31.9761 61.7461 32.002 61.7492 32.0276C61.7492 32.0407 61.7492 32.0473 61.732 32.0484L61.6943 32.1712C61.7305 32.2458 61.7443 32.3285 61.7343 32.4102C61.7286 32.5122 61.724 32.6065 61.7229 32.6931C61.7115 32.7074 61.7035 32.6931 61.6989 32.6591C61.6923 32.6809 61.6771 32.6994 61.6566 32.7107C61.6372 32.7194 61.6429 32.7348 61.6715 32.7556C61.671 32.7531 61.671 32.7506 61.6716 32.7481C61.6723 32.7457 61.6734 32.7434 61.6751 32.7414C61.6767 32.7395 61.6787 32.7378 61.6811 32.7367C61.6834 32.7355 61.686 32.7349 61.6886 32.7348C61.7008 32.7348 61.7031 32.7534 61.6955 32.7907L61.7252 32.7117C61.7377 32.8104 61.7469 32.9157 61.756 33.0275C61.7617 33.1552 61.7482 33.2829 61.716 33.4069H61.7355C61.7355 33.4321 61.7355 33.4474 61.7355 33.454C61.73 33.4693 61.73 33.4859 61.7355 33.5012H61.7538C61.7371 33.5177 61.7263 33.5388 61.7229 33.5615V33.5242C61.7198 33.5263 61.7173 33.5291 61.7156 33.5324C61.7139 33.5356 61.713 33.5392 61.713 33.5428C61.713 33.5465 61.7139 33.5501 61.7156 33.5533C61.7173 33.5565 61.7198 33.5593 61.7229 33.5615C61.7092 33.863 61.7115 34.1535 61.7229 34.4331C61.7343 34.7127 61.7526 34.9956 61.7629 35.2818C61.7503 35.2818 61.7423 35.3004 61.74 35.3311C61.7384 35.353 61.7384 35.375 61.74 35.3969L61.7572 35.3761C61.758 35.5876 61.7721 35.7988 61.7995 36.0087C61.8258 36.2192 61.8429 36.4473 61.8486 36.6972C61.836 36.6972 61.8326 36.6742 61.8395 36.6238C61.8155 36.6638 61.8029 36.7092 61.8029 36.7553C61.8029 36.8015 61.8155 36.8469 61.8395 36.8869C61.7924 37.0337 61.7792 37.1886 61.8006 37.3408C61.8212 37.5009 61.8395 37.6489 61.8578 37.7849C61.8377 37.8098 61.8138 37.8316 61.7869 37.8496C61.7629 37.8649 61.7652 37.8825 61.7949 37.9044C61.82 37.9044 61.8326 37.8934 61.8303 37.8814C61.8302 37.8617 61.8345 37.8423 61.8429 37.8244C61.8688 37.9144 61.864 38.0101 61.8292 38.0974C61.7921 38.1845 61.7921 38.2821 61.8292 38.3693C61.8548 38.3417 61.8737 38.309 61.8844 38.2735C61.895 38.238 61.8973 38.2007 61.8909 38.1642C61.873 38.1059 61.873 38.0439 61.8909 37.9855L61.8818 37.9121C61.8814 37.9049 61.8825 37.8977 61.8851 37.8909C61.8876 37.8841 61.8916 37.8779 61.8966 37.8726C61.8829 37.8726 61.8818 37.9121 61.8966 37.9822C61.9386 38.0977 61.9576 38.2197 61.9526 38.3419C61.9549 38.4605 61.9406 38.5788 61.9103 38.6938C61.8749 38.6226 61.836 38.5491 61.796 38.4745C61.7528 38.3923 61.7376 38.2991 61.7526 38.2081C61.728 38.1567 61.7141 38.1012 61.7115 38.0447C61.6958 37.9876 61.7019 37.927 61.7286 37.8737C61.7195 37.8006 61.7115 37.714 61.7046 37.6138C61.7046 37.5141 61.6875 37.4033 61.6715 37.2849C61.6613 37.2947 61.6548 37.3075 61.6532 37.3212C61.6515 37.335 61.6547 37.3488 61.6623 37.3606C61.6699 37.3724 61.6731 37.3864 61.6712 37.4002C61.6693 37.4139 61.6626 37.4267 61.652 37.4362C61.652 37.4121 61.644 37.3693 61.636 37.3079C61.6261 37.2646 61.6261 37.2197 61.636 37.1764C61.6238 37.1764 61.6238 37.1512 61.636 37.1007C61.6492 37.0577 61.6467 37.0117 61.6292 36.9702C61.6107 37.0539 61.6084 37.1401 61.6223 37.2246C61.6374 37.3147 61.6374 37.4065 61.6223 37.4965C61.6155 37.547 61.6177 37.5656 61.6292 37.5524C61.6314 37.5495 61.6343 37.5471 61.6377 37.5455C61.6411 37.5438 61.6448 37.5429 61.6486 37.5429C61.6524 37.5429 61.6561 37.5438 61.6595 37.5455C61.6629 37.5471 61.6658 37.5495 61.668 37.5524C61.6511 37.6244 61.6472 37.6985 61.6566 37.7717C61.6662 37.8551 61.6704 37.9389 61.6692 38.0228C61.6907 38.0916 61.703 38.1627 61.7057 38.2344C61.7057 38.29 61.7057 38.3558 61.7057 38.4318C61.7309 38.4318 61.74 38.4186 61.7309 38.4C61.7217 38.3813 61.724 38.3737 61.7309 38.3715C61.7377 38.3693 61.756 38.412 61.7629 38.4614C61.7697 38.5107 61.7732 38.548 61.7766 38.571C61.7217 38.5524 61.7012 38.5425 61.7137 38.5414C61.705 38.5879 61.7081 38.6356 61.7229 38.6807C61.7388 38.753 61.7388 38.8276 61.7229 38.8999C61.7045 38.8556 61.7017 38.8067 61.7149 38.7607C61.7267 38.7008 61.7154 38.6388 61.6829 38.5864C61.6719 38.5916 61.6635 38.6007 61.6595 38.6117C61.6554 38.6228 61.656 38.6349 61.6612 38.6456C61.6706 38.6689 61.6771 38.6932 61.6806 38.7179C61.6555 38.7333 61.6497 38.7333 61.6612 38.7179C61.6726 38.7026 61.6612 38.6993 61.6395 38.7015C61.6445 38.7168 61.6445 38.7333 61.6395 38.7486C61.6297 38.7645 61.622 38.7814 61.6166 38.7991C61.5936 38.7983 61.5717 38.7893 61.5552 38.7739C61.5388 38.7585 61.5288 38.7378 61.5274 38.7157C61.5023 38.73 61.4943 38.7443 61.5034 38.7552C61.5127 38.7722 61.5182 38.7909 61.5194 38.81C61.5034 38.787 61.4932 38.7815 61.4886 38.7947C61.484 38.8078 61.4886 38.8144 61.5 38.8122C61.4623 38.8465 61.4125 38.8657 61.3606 38.866C61.2926 38.8741 61.2257 38.8885 61.1606 38.9087L61.1686 38.9646C61.1168 38.9556 61.0635 38.9586 61.0131 38.9734C60.9522 38.982 60.8945 39.005 60.8451 39.0403C60.8283 39.0037 60.8066 38.9873 60.7799 38.991C60.7662 38.98 60.7582 38.9964 60.7571 39.0414C60.7559 39.0863 60.7479 39.0951 60.7319 39.0721C60.7079 39.0874 60.6999 39.0787 60.7091 39.0469C60.7173 39.0191 60.7204 38.9901 60.7182 38.9613C60.7119 38.9617 60.7059 38.9641 60.7012 38.968C60.6964 38.972 60.6932 38.9774 60.6919 38.9833C60.6919 38.9964 60.6714 39.0041 60.6451 39.0074C60.6188 39.0107 60.6062 39.0074 60.6051 38.9931C60.6016 38.9791 60.5931 38.9667 60.5811 38.9581C60.5488 38.9836 60.5086 38.9982 60.4668 38.9997C60.439 38.9966 60.4118 38.9904 60.3856 38.9811C60.3696 38.95 60.3588 38.9167 60.3536 38.8824C60.3446 38.8404 60.3263 38.8008 60.2999 38.7662L60.2416 38.7739L60.1982 38.741C60.1603 38.7348 60.1217 38.7348 60.0839 38.741C59.9919 38.5555 59.9428 38.3532 59.9399 38.1478C59.9276 37.9027 59.8928 37.659 59.8359 37.4198L59.7993 36.3738C59.7795 35.9133 59.7616 35.5215 59.7456 35.1984C59.7307 34.875 59.7136 34.5669 59.6964 34.2752C59.6793 33.9836 59.6713 33.6755 59.6747 33.3499C59.6781 33.0242 59.6884 32.6229 59.7056 32.1438C59.549 32.1888 59.3843 32.2019 59.2221 32.1822C59.2084 32.1822 59.2027 32.1822 59.2038 32.1931C59.2049 32.2041 59.2038 32.203 59.1855 32.2052C59.1833 32.2081 59.1804 32.2105 59.177 32.2122C59.1736 32.2138 59.1699 32.2147 59.1661 32.2147C59.1623 32.2147 59.1586 32.2138 59.1552 32.2122C59.1518 32.2105 59.1489 32.2081 59.1467 32.2052V32.1866C59.0586 32.2096 58.9764 32.2293 58.8998 32.2436C58.83 32.2585 58.7585 32.264 58.6872 32.26C58.6428 32.2808 58.6 32.3046 58.5592 32.3313C58.5088 32.3627 58.4486 32.3763 58.3889 32.3697C58.3666 32.3686 58.3452 32.3614 58.3271 32.3488C58.3031 32.3348 58.2752 32.3283 58.2471 32.3302C58.2269 32.3354 58.2079 32.3443 58.1911 32.3565C58.175 32.3684 58.1562 32.3767 58.1363 32.3806L58.022 32.3949C57.9961 32.398 57.9708 32.4042 57.9465 32.4135C57.9223 32.4224 57.8969 32.4283 57.8711 32.4311C57.718 32.4629 57.5614 32.487 57.4014 32.5056C57.2404 32.5262 57.0852 32.5764 56.9442 32.6536C56.9174 32.9262 56.9071 33.2 56.9133 33.4738C56.9206 33.7156 56.9126 33.9576 56.8893 34.1985C56.8893 34.386 56.8893 34.5998 56.8893 34.8366C56.8893 35.0734 56.8893 35.3157 56.8893 35.5602C56.8893 35.8048 56.8893 36.0416 56.8893 36.2718C56.8893 36.5021 56.8996 36.7104 56.9087 36.8792C56.8726 36.795 56.8577 36.7037 56.8653 36.6128C56.8744 36.5306 56.8802 36.4516 56.8836 36.376C56.8431 36.565 56.835 36.759 56.8596 36.9505C56.884 37.1389 56.8954 37.3286 56.8939 37.5185C56.8881 37.5174 56.8826 37.5151 56.8779 37.5116C56.8732 37.5081 56.8694 37.5037 56.8668 37.4985C56.8643 37.4934 56.863 37.4878 56.8631 37.4821C56.8633 37.4764 56.8648 37.4708 56.8676 37.4658C56.8704 37.4607 56.8719 37.4551 56.872 37.4494C56.8721 37.4436 56.8709 37.4379 56.8683 37.4327C56.8658 37.4275 56.862 37.4229 56.8573 37.4194C56.8526 37.4158 56.8472 37.4133 56.8413 37.4121C56.8038 37.5099 56.7871 37.6139 56.7922 37.718C56.7922 37.8178 56.8116 37.9373 56.8299 38.0886C56.819 38.0736 56.8029 38.0628 56.7844 38.0582C56.766 38.0536 56.7464 38.0554 56.7293 38.0634C56.6999 38.0781 56.6683 38.0881 56.6356 38.093C56.6418 38.152 56.6418 38.2115 56.6356 38.2706C56.6302 38.3314 56.6445 38.3923 56.6767 38.4449C56.6514 38.4763 56.6296 38.5101 56.6116 38.5458C56.5908 38.5939 56.5908 38.6479 56.6116 38.696C56.5819 38.6743 56.546 38.662 56.5087 38.6609C56.4698 38.6609 56.4401 38.6346 56.4218 38.5875C56.3955 38.5875 56.3818 38.6072 56.3795 38.639C56.3768 38.6684 56.3706 38.6975 56.3613 38.7256C56.3161 38.7012 56.277 38.6675 56.247 38.6269C56.2142 38.5865 56.173 38.5533 56.1258 38.5294C56.1153 38.5481 56.1098 38.569 56.1098 38.5902C56.1098 38.6115 56.1153 38.6324 56.1258 38.6511C56.1421 38.6965 56.1608 38.7412 56.1818 38.7848C56.1334 38.7813 56.0876 38.7623 56.0518 38.7309C56.016 38.6995 55.9921 38.6575 55.9841 38.6116C55.9636 38.5248 55.9247 38.4431 55.8698 38.3715C55.8275 38.3517 55.7943 38.3517 55.7715 38.3715C55.7521 38.3913 55.7264 38.4044 55.6983 38.4088C55.6777 38.3945 55.6592 38.3775 55.6435 38.3583C55.6343 38.3474 55.6229 38.3298 55.6069 38.3068C55.4331 38.1079 55.3355 37.858 55.3303 37.5985C55.312 37.3061 55.2968 37.0108 55.2846 36.7126C55.2503 36.4418 55.2274 36.1414 55.2183 35.8113C55.2092 35.4813 55.1794 35.1315 55.1794 34.7763C55.1794 34.4211 55.1794 34.0757 55.1794 33.7259C55.1794 33.3762 55.1794 33.0505 55.1794 32.7501C55.089 32.7911 54.9949 32.8241 54.8983 32.8488L54.6697 32.9036C54.6491 32.9442 54.6571 32.9563 54.6937 32.9387C54.7171 32.9266 54.7421 32.9174 54.768 32.9113C54.7737 32.9486 54.7497 32.9694 54.6982 32.976L54.5839 32.9891C54.5122 33.0099 54.4388 33.025 54.3645 33.0341C54.3071 33.0382 54.2521 33.0575 54.2056 33.09C54.2056 33.078 54.1713 33.0758 54.1073 33.0834C54.0833 33.0988 54.081 33.1087 54.1073 33.1119C54.1336 33.1152 54.1302 33.1185 54.1176 33.1207C54.1051 33.1229 54.0833 33.1339 54.0879 33.1141C54.0925 33.0944 54.081 33.0867 54.0548 33.09L54.0628 33.1459C53.9866 33.1547 53.9408 33.1547 53.9256 33.1459C53.9256 33.1218 53.9336 33.1141 53.961 33.1229C53.9737 33.1277 53.9875 33.1295 54.0011 33.128C54.0146 33.1264 54.0276 33.1217 54.0388 33.1141C53.9486 33.0973 53.8558 33.0973 53.7656 33.1141C53.6639 33.1328 53.537 33.1558 53.4033 33.1854C53.4019 33.1734 53.3968 33.1621 53.3887 33.1529C53.3805 33.1437 53.3697 33.1371 53.3576 33.1339C53.3301 33.1251 53.3256 33.0944 53.345 33.0418C53.2804 33.0343 53.2152 33.0343 53.1507 33.0418C53.1098 33.0463 53.0684 33.0428 53.0291 33.0312C52.9898 33.0197 52.9533 33.0005 52.9221 32.9749C52.9166 32.9592 52.9166 32.9423 52.9221 32.9266C52.9278 32.9201 52.9289 32.9047 52.9221 32.8795C52.9872 32.8718 53.0238 32.8554 53.0364 32.8291C53.0461 32.8035 53.0641 32.7816 53.0878 32.7666C53.0969 32.7425 53.0969 32.7161 53.0878 32.692C53.0785 32.6676 53.0785 32.6408 53.0878 32.6164C53.1339 32.6137 53.179 32.6022 53.2204 32.5824C53.2444 32.567 53.2718 32.5517 53.3015 32.5352C53.3274 32.5203 53.3562 32.5106 53.3861 32.5067C53.4095 32.4788 53.4359 32.4535 53.465 32.4311C53.4883 32.4116 53.5168 32.3987 53.5473 32.3938C53.5688 32.3524 53.5768 32.3058 53.5701 32.26L53.6559 32.2491C53.6753 32.2491 53.6753 32.2655 53.6559 32.3061L53.7256 32.2414C53.7574 32.2625 53.7955 32.2733 53.8342 32.2721C53.8728 32.2709 53.9101 32.2578 53.9405 32.2348C53.9734 32.2324 54.0065 32.2347 54.0388 32.2414C54.0556 32.2465 54.0738 32.2464 54.0906 32.2411C54.1074 32.2357 54.1221 32.2255 54.1325 32.2118C54.2797 32.2196 54.4268 32.196 54.5634 32.1427C54.7009 32.0897 54.8427 32.0475 54.9874 32.0166C55.0116 32.0152 55.0346 32.0059 55.0526 31.9903C55.0654 31.9826 55.0798 31.9778 55.0948 31.9761C55.1099 31.9744 55.1251 31.9759 55.1394 31.9804C55.1683 31.9271 55.1809 31.8671 55.176 31.8072C55.1769 31.7224 55.1924 31.6383 55.2217 31.5583C55.2149 31.0971 55.2149 30.675 55.2217 30.2919C55.2286 29.9089 55.2526 29.4609 55.2937 28.9477C55.3006 28.7964 55.3029 28.6627 55.3006 28.5432C55.2983 28.4236 55.3006 28.3162 55.3006 28.2142C55.3006 28.1123 55.3006 28.0081 55.3086 27.8952C55.3166 27.7822 55.3269 27.6551 55.3486 27.5147C55.3646 27.3382 55.384 27.1573 55.4057 26.9742C55.4268 26.8289 55.4306 26.6817 55.4172 26.5356C55.4363 26.3883 55.4465 26.24 55.448 26.0916C55.448 25.9479 55.448 25.8065 55.4617 25.6683C55.4696 25.5306 55.4879 25.3935 55.5166 25.2583C55.5469 25.119 55.6068 24.9873 55.6926 24.8712C55.7077 24.8475 55.7175 24.821 55.7212 24.7934C55.7149 24.7686 55.7053 24.7446 55.6926 24.7221C55.7018 24.6958 55.7143 24.6914 55.7292 24.7079C55.733 24.7117 55.7377 24.7148 55.7428 24.7169C55.7479 24.719 55.7534 24.72 55.7589 24.72C55.7645 24.72 55.77 24.719 55.7751 24.7169C55.7802 24.7148 55.7848 24.7117 55.7886 24.7079L55.8515 24.5884C55.9005 24.5699 55.9535 24.5635 56.0058 24.5697C56.0514 24.5766 56.098 24.5713 56.1407 24.5544C56.1638 24.5694 56.191 24.5775 56.219 24.5775C56.2469 24.5775 56.2742 24.5694 56.2973 24.5544C56.3159 24.5399 56.3384 24.5307 56.3623 24.5278C56.3861 24.5248 56.4103 24.5284 56.4321 24.5379C56.4733 24.5588 56.4916 24.55 56.487 24.5127C56.5886 24.5459 56.6821 24.5989 56.7613 24.6684C56.8421 24.7398 56.9289 24.8047 57.0207 24.8625C57.0459 24.8625 57.0516 24.846 57.0356 24.823C57.0196 24.8 57.0173 24.7879 57.0356 24.7857L57.0847 24.8647C57.1048 24.9077 57.1172 24.9537 57.1213 25.0006C57.2333 25.0635 57.2996 25.1994 57.3202 25.4085C57.3405 25.6405 57.3343 25.874 57.3019 26.1047C57.2791 26.4336 57.2448 26.7472 57.199 27.0454C57.1533 27.3437 57.1156 27.6397 57.0847 27.9314C57.0607 28.2471 57.0402 28.5453 57.0242 28.8293C57.0082 29.1133 56.9967 29.3984 56.9887 29.6867C56.9807 29.9751 56.9693 30.2733 56.9567 30.5814C56.9442 30.8895 56.9339 31.2184 56.927 31.5682C57.4116 31.4863 57.8806 31.4092 58.334 31.3368C58.7874 31.2645 59.2526 31.2064 59.7296 31.1625L59.9216 27.632C59.9307 27.5059 59.9364 27.3985 59.9387 27.3108C59.941 27.2231 59.9387 27.1386 59.9387 27.0575C59.9387 26.9764 59.9387 26.8909 59.9456 26.8031C59.9489 26.6928 59.9612 26.5828 59.9822 26.4742C60.0022 26.3342 60.0022 26.1921 59.9822 26.0521C59.9642 25.9249 59.9608 25.7962 59.9719 25.6683C59.9719 25.3931 59.9856 25.1695 60.0027 24.9995C60.0199 24.8296 60.0325 24.6706 60.0405 24.5259C60.0485 24.3811 60.0565 24.2265 60.069 24.0632C60.0816 23.8998 60.0885 23.6849 60.0942 23.4218C60.1018 23.3984 60.116 23.3775 60.1353 23.3615C60.1525 23.3472 60.1456 23.3165 60.1136 23.2694C60.1244 23.274 60.1361 23.2763 60.1479 23.2763C60.1597 23.2763 60.1714 23.274 60.1822 23.2694C60.1967 23.2617 60.2126 23.2565 60.229 23.254C60.2247 23.2261 60.2178 23.1986 60.2085 23.1718C60.2029 23.1617 60.1999 23.1504 60.1999 23.1389C60.1999 23.1274 60.2029 23.1161 60.2085 23.106C60.237 23.1279 60.261 23.1312 60.2782 23.117C60.2875 23.1098 60.2988 23.1052 60.3108 23.1038C60.3227 23.1025 60.3348 23.1044 60.3456 23.1093C60.343 23.1098 60.3404 23.1097 60.3378 23.1091C60.3353 23.1085 60.3329 23.1074 60.3308 23.1058C60.3288 23.1043 60.3271 23.1023 60.3259 23.1001C60.3247 23.0978 60.324 23.0954 60.3239 23.0929C60.3616 23.0764 60.3639 23.0501 60.3342 23.0161C60.4233 23.0062 60.4702 23.0073 60.4713 23.0161C60.4816 23.0423 60.498 23.066 60.5193 23.0852C60.5319 23.0852 60.5491 23.0687 60.5719 23.0413C60.5594 23.0413 60.5502 23.0194 60.5434 22.97H60.5628L60.5719 23.0446C60.5951 23.0168 60.6143 22.9862 60.6291 22.9536C60.6438 22.921 60.6631 22.8904 60.6862 22.8626L60.7171 22.8023L60.5628 22.97L60.5731 22.8944C60.5714 22.8963 60.5702 22.8986 60.5694 22.901C60.5687 22.9034 60.5684 22.9059 60.5687 22.9084C60.569 22.9109 60.5697 22.9133 60.571 22.9155C60.5722 22.9177 60.5739 22.9197 60.5759 22.9213C60.578 22.9228 60.5803 22.924 60.5828 22.9247C60.5853 22.9255 60.5879 22.9257 60.5905 22.9255C60.5931 22.9252 60.5956 22.9245 60.5979 22.9233C60.6002 22.9221 60.6023 22.9205 60.6039 22.9185V22.9185ZM53.2364 32.4936C53.2442 32.5084 53.2477 32.525 53.2465 32.5416C53.2453 32.5582 53.2395 32.5742 53.2295 32.5879C53.2297 32.5827 53.2287 32.5775 53.2264 32.5729C53.2241 32.5682 53.2208 32.564 53.2165 32.5608C53.2123 32.5576 53.2073 32.5554 53.202 32.5544C53.1968 32.5534 53.1913 32.5536 53.1861 32.555C53.1842 32.5451 53.1862 32.5349 53.1918 32.5265C53.1979 32.5182 53.2004 32.5079 53.1987 32.4979L53.2364 32.4936ZM53.8902 33.1657C53.8742 33.1426 53.873 33.1306 53.8902 33.1295C53.9073 33.1284 53.9107 33.1394 53.9142 33.1635L53.8902 33.1657ZM61.1228 38.7815C61.1777 38.8002 61.1971 38.7541 61.1834 38.6434C61.1571 38.6434 61.1468 38.6631 61.1503 38.6938C61.1526 38.7095 61.1513 38.7254 61.1466 38.7406C61.1418 38.7557 61.1337 38.7697 61.1228 38.7815ZM61.164 38.7958C61.1411 38.8232 61.156 38.8342 61.2074 38.8276C61.2074 38.8024 61.196 38.7914 61.1834 38.7925L61.164 38.7958ZM61.4623 38.6861C61.4497 38.6861 61.4417 38.7015 61.4383 38.7267C61.4349 38.7519 61.4463 38.7629 61.4714 38.7596L61.4623 38.6861ZM61.212 35.9769C61.244 36.024 61.2714 36.0613 61.2954 36.0865C61.3125 36.1039 61.325 36.125 61.332 36.1479C61.3366 36.1287 61.337 36.1088 61.3331 36.0894C61.3293 36.07 61.3212 36.0516 61.3095 36.0354C61.2977 36.0192 61.2826 36.0055 61.265 35.9952C61.2474 35.985 61.2278 35.9783 61.2074 35.9758L61.212 35.9769ZM61.6006 38.4208C61.6097 38.4954 61.6212 38.5305 61.6337 38.5305C61.6321 38.5086 61.6321 38.4866 61.6337 38.4647C61.6368 38.4354 61.6257 38.4208 61.6006 38.4208ZM61.6006 38.0842C61.6035 38.1123 61.6035 38.1406 61.6006 38.1686C61.5994 38.184 61.6025 38.1994 61.6096 38.2133C61.6166 38.2271 61.6273 38.2389 61.6406 38.2476C61.6375 38.2166 61.6375 38.1854 61.6406 38.1544C61.636 38.1204 61.6235 38.0919 61.596 38.0919L61.6006 38.0842ZM61.5617 37.0196C61.5463 37.1914 61.5463 37.3642 61.5617 37.536C61.5766 37.7027 61.5949 37.8649 61.6155 38.0261C61.6205 37.8549 61.6148 37.6835 61.5983 37.513C61.5754 37.3237 61.5617 37.1603 61.5572 37.0229L61.5617 37.0196ZM61.8109 38.6642C61.8057 38.6592 61.7995 38.6553 61.7926 38.6528C61.7856 38.6504 61.7782 38.6494 61.7709 38.65C61.7709 38.5984 61.7869 38.5732 61.7995 38.571L61.8109 38.6642ZM61.5194 36.3913L61.5 36.2433C61.4794 36.319 61.4863 36.3683 61.5149 36.3902L61.5194 36.3913ZM61.5194 36.3913C61.509 36.4217 61.5062 36.454 61.5114 36.4856C61.5082 36.4734 61.5082 36.4606 61.5114 36.4484C61.5171 36.4295 61.5183 36.4096 61.5149 36.3902L61.5194 36.3913ZM61.4863 36.1326C61.4932 35.9813 61.492 35.8256 61.4863 35.6633C61.4806 35.501 61.4657 35.3475 61.4463 35.1995C61.4417 35.2631 61.436 35.3201 61.4291 35.3706C61.4224 35.4267 61.4224 35.4833 61.4291 35.5394H61.4486C61.4613 35.6416 61.4647 35.7447 61.4589 35.8475C61.451 35.9427 61.4587 36.0385 61.4817 36.1315L61.4863 36.1326ZM61.6875 37.7027C61.6836 37.6717 61.6836 37.6404 61.6875 37.6095C61.691 37.584 61.6845 37.5582 61.6692 37.5371L61.6875 37.7027ZM61.6074 36.6249C61.5914 36.7016 61.5983 36.751 61.6269 36.7729C61.6235 36.758 61.6234 36.7426 61.6265 36.7277C61.6297 36.7128 61.636 36.6987 61.6452 36.6863C61.6577 36.6665 61.6452 36.6435 61.6029 36.6238L61.6074 36.6249ZM61.5434 36.126C61.5521 36.1283 61.5611 36.1289 61.57 36.1277C61.5789 36.1266 61.5874 36.1237 61.5951 36.1193C61.6028 36.1149 61.6095 36.109 61.6147 36.1021C61.62 36.0951 61.6237 36.0872 61.6257 36.0789C61.6336 36.0643 61.6376 36.0481 61.6376 36.0317C61.6376 36.0153 61.6336 35.9991 61.6257 35.9846L61.5434 36.126ZM61.6337 36.8277C61.6394 36.865 61.644 36.9078 61.6509 36.9571C61.6577 37.0064 61.6657 37.024 61.6772 37.0108C61.669 36.961 61.669 36.9104 61.6772 36.8606C61.6811 36.8411 61.6802 36.821 61.6744 36.8019C61.6686 36.7829 61.6582 36.7654 61.644 36.751C61.6468 36.7632 61.6468 36.776 61.644 36.7882C61.6357 36.7996 61.6306 36.8128 61.6292 36.8266L61.6337 36.8277ZM61.4303 35.0888C61.4468 34.9062 61.443 34.7224 61.4189 34.5406C61.3949 34.3564 61.3789 34.1766 61.3697 34.0022C61.3697 34.1788 61.3697 34.3498 61.3766 34.5176C61.3834 34.6853 61.3983 34.8783 61.4257 35.0877L61.4303 35.0888ZM61.5766 35.3157C61.5569 35.3703 61.551 35.4285 61.5594 35.4857C61.5869 35.4956 61.5903 35.5263 61.5709 35.5789C61.5619 35.6072 61.561 35.6372 61.5682 35.666C61.5755 35.6947 61.5906 35.721 61.612 35.7423C61.612 35.6798 61.6212 35.6074 61.6235 35.523C61.6259 35.4504 61.6082 35.3785 61.572 35.3147L61.5766 35.3157ZM61.8978 37.6599C61.8715 37.6599 61.8658 37.6445 61.8806 37.6051C61.8954 37.5624 61.8997 37.517 61.8932 37.4724C61.9098 37.5335 61.9098 37.5977 61.8932 37.6588L61.8978 37.6599ZM61.8475 37.1216L61.8578 37.195C61.8592 37.207 61.8569 37.2191 61.8512 37.2298C61.8455 37.2405 61.8367 37.2494 61.8258 37.2553L61.8475 37.1216ZM61.5937 35.2949C61.6104 35.2108 61.6157 35.1249 61.6097 35.0394C61.604 34.9463 61.5983 34.875 61.5914 34.8256C61.5514 34.899 61.5381 34.9832 61.5537 35.0647C61.5663 35.1436 61.58 35.2193 61.5892 35.2938L61.5937 35.2949ZM61.532 34.8147C61.5572 34.8147 61.5652 34.7949 61.5549 34.7642C61.5446 34.7335 61.532 34.7204 61.5194 34.7215L61.532 34.8147ZM61.596 35.3125C61.6075 35.2993 61.6166 35.2949 61.6235 35.3004C61.6303 35.3059 61.6395 35.3004 61.6486 35.2697C61.6381 35.2698 61.6277 35.2721 61.6183 35.2765C61.6088 35.2808 61.6004 35.2871 61.5937 35.2949L61.596 35.3125ZM61.9229 37.763C61.9055 37.7353 61.895 37.7041 61.892 37.672C61.912 37.6985 61.9228 37.7303 61.9229 37.763ZM61.5137 33.9661C61.5337 33.9014 61.5415 33.8338 61.5366 33.7665C61.535 33.7009 61.5234 33.6359 61.5023 33.5735C61.5081 33.6388 61.5081 33.7045 61.5023 33.7698C61.5023 33.8389 61.4932 33.9058 61.4886 33.9682C61.4906 33.9913 61.5002 34.0132 61.516 34.0307C61.5309 34.0472 61.5252 34.0571 61.5 34.0603C61.5324 34.1128 61.5438 34.1748 61.532 34.2347C61.5201 34.3073 61.5201 34.3813 61.532 34.454C61.5446 34.3531 61.5526 34.2643 61.556 34.1886C61.5616 34.114 61.5483 34.0391 61.5172 33.9704L61.5137 33.9661ZM61.6875 34.7138C61.684 34.6891 61.684 34.664 61.6875 34.6393C61.6909 34.6145 61.6909 34.5894 61.6875 34.5647C61.6783 34.67 61.6783 34.7204 61.6943 34.7182L61.6875 34.7138ZM61.7046 34.3937C61.6806 34.409 61.676 34.4222 61.6909 34.432C61.6936 34.4344 61.6957 34.4373 61.6972 34.4405C61.6987 34.4437 61.6995 34.4472 61.6995 34.4507C61.6995 34.4542 61.6987 34.4577 61.6972 34.4609C61.6957 34.4641 61.6936 34.4669 61.6909 34.4693C61.6695 34.4299 61.657 34.3865 61.6543 34.3421C61.6469 34.2864 61.6469 34.2301 61.6543 34.1744C61.6635 34.1481 61.6692 34.1634 61.6692 34.2193C61.6725 34.2805 61.6856 34.3407 61.708 34.398L61.7046 34.3937ZM61.66 34.0428C61.7012 34.0625 61.7172 34.0801 61.7057 34.0932C61.6987 34.1008 61.69 34.107 61.6804 34.1113C61.6708 34.1157 61.6604 34.1181 61.6497 34.1185C61.6601 34.0961 61.6648 34.0716 61.6635 34.0472L61.66 34.0428ZM60.3285 23.0786C60.3259 23.0791 60.3232 23.079 60.3207 23.0784C60.3181 23.0778 60.3158 23.0767 60.3137 23.0751C60.3116 23.0736 60.31 23.0716 60.3088 23.0694C60.3076 23.0671 60.3069 23.0647 60.3068 23.0622C60.2816 23.0622 60.2759 23.0698 60.2896 23.0742C60.2955 23.076 60.3007 23.0793 60.3048 23.0837C60.3088 23.0882 60.3115 23.0936 60.3125 23.0994C60.2576 23.0808 60.2359 23.0709 60.2496 23.0687C60.2496 23.0446 60.2645 23.0336 60.2942 23.0358C60.3296 23.0413 60.3422 23.0556 60.3319 23.0819L60.3285 23.0786ZM61.7 33.1755C61.6797 33.2323 61.6644 33.2906 61.6543 33.3499C61.6429 33.4135 61.6543 33.4595 61.6806 33.4781L61.7092 33.3992C61.7011 33.3869 61.696 33.3731 61.6942 33.3587C61.6924 33.3442 61.694 33.3296 61.6989 33.3159C61.7104 33.2711 61.7135 33.2247 61.708 33.1788L61.7 33.1755ZM60.5731 22.8801V22.8615L60.5879 22.8231L60.5731 22.8801ZM61.9229 27.3952C61.9368 27.4055 61.9472 27.4196 61.9527 27.4356C61.9582 27.4516 61.9586 27.4689 61.9538 27.4851L61.9298 27.6002C61.9264 27.5663 61.9264 27.5322 61.9298 27.4983C61.9308 27.4638 61.9285 27.4293 61.9229 27.3952V27.3952Z" fill="#00583D"/>
<path d="M69.38 31.4271C69.3572 31.4553 69.3255 31.4757 69.2897 31.4852C69.2573 31.4941 69.2261 31.507 69.1971 31.5236C69.1118 31.6698 68.967 31.8891 68.7628 32.1814C68.5586 32.4738 68.33 32.779 68.077 33.0969C67.8256 33.42 67.5684 33.7256 67.3055 34.0136C67.0981 34.2484 66.8711 34.4666 66.6266 34.6659L66.6483 34.6813C66.5285 34.7912 66.3921 34.8833 66.2437 34.9543C66.0918 35.0232 65.9248 35.056 65.7568 35.0497C65.7405 35.0522 65.7239 35.0522 65.7077 35.0497C65.6716 35.0484 65.6358 35.0559 65.6037 35.0716C65.4835 35.0288 65.3535 35.0182 65.2276 35.0409C65.1124 35.0655 64.992 35.0532 64.8847 35.0058C64.8362 35.0124 64.787 35.0124 64.7384 35.0058C64.7008 34.999 64.6623 34.9972 64.6241 35.0003C64.4927 34.9905 64.4264 34.9609 64.4276 34.9115C64.4287 34.8622 64.3658 34.8128 64.2424 34.7646C64.0497 34.5877 63.9015 34.371 63.8092 34.1309C63.7066 33.8367 63.6677 33.5255 63.6949 33.2165C63.7292 32.9896 63.7292 32.7592 63.6949 32.5323C63.6604 32.3144 63.6752 32.0919 63.7383 31.8799C63.755 31.8634 63.7657 31.8423 63.7692 31.8196L63.7452 31.7845C63.8012 31.6157 63.8481 31.4699 63.8846 31.346C63.9212 31.2221 63.9509 31.1015 63.9738 30.9798C63.9967 30.8581 64.0241 30.7331 64.0527 30.6048C64.0812 30.4765 64.1247 30.3274 64.1818 30.1574C64.2096 30.0979 64.2311 30.0358 64.2458 29.9721C64.2573 29.914 64.2721 29.8537 64.2904 29.789C64.3119 29.763 64.3314 29.7355 64.3487 29.7068C64.3656 29.6781 64.3847 29.6506 64.4058 29.6246C64.444 29.4726 64.5003 29.3255 64.5739 29.186C64.6543 29.0417 64.7444 28.9025 64.8436 28.7694C64.8756 28.7156 64.9099 28.6597 64.9487 28.5983C64.9852 28.5393 65.0133 28.4759 65.0322 28.4097C65.0335 28.3871 65.0398 28.3649 65.0505 28.3446C65.0612 28.3244 65.0761 28.3064 65.0943 28.2919C65.1125 28.2774 65.1337 28.2667 65.1564 28.2603C65.1791 28.254 65.203 28.2523 65.2265 28.2551L65.2848 28.2486C65.2974 28.1908 65.3325 28.1398 65.3831 28.106L65.5282 28.0139C65.5605 28.0102 65.5931 28.0102 65.6254 28.0139C65.6531 28.0171 65.6803 28.0234 65.7065 28.0326C65.7188 28.0065 65.7412 27.9861 65.769 27.9756C65.7967 27.9652 65.8276 27.9655 65.8551 27.9767C65.9108 27.9578 65.9701 27.9511 66.0288 27.9569H66.0677C66.082 27.9535 66.0946 27.9454 66.1031 27.9339C66.1165 27.9429 66.1281 27.954 66.1374 27.9668C66.1512 27.9823 66.1695 27.9934 66.19 27.9986C66.2186 28.0194 66.2426 28.0271 66.2609 28.0183C66.2791 28.0096 66.3032 28.0183 66.3317 28.0381C66.3734 28.0374 66.4147 28.0452 66.4529 28.0611C66.4556 28.0613 66.4582 28.0608 66.4607 28.0597C66.4631 28.0586 66.4652 28.0569 66.4668 28.0549C66.4684 28.0528 66.4694 28.0504 66.4698 28.0478C66.4702 28.0453 66.4698 28.0427 66.4689 28.0403C66.4689 28.0282 66.4803 28.0271 66.5077 28.0403L66.5009 28.1345C66.526 28.1345 66.5386 28.1269 66.5375 28.1214C66.5363 28.1159 66.5375 28.1104 66.5557 28.1093C66.5762 28.1145 66.5946 28.1256 66.6083 28.1411C66.6163 28.1521 66.6335 28.1565 66.6598 28.1532V28.1718C66.8117 28.2427 66.9448 28.3457 67.0492 28.4732C67.1535 28.6006 67.2263 28.7491 67.2621 28.9075C67.3604 29.2513 67.3604 29.6141 67.2621 29.9579L67.2678 29.9952C67.1746 30.1326 67.098 30.2798 67.0392 30.4337C66.991 30.5676 66.9254 30.6951 66.8438 30.8131C66.8423 30.842 66.8345 30.8704 66.8209 30.8962C66.8074 30.9221 66.7883 30.945 66.7649 30.9633C66.7231 30.9949 66.6882 31.034 66.662 31.0784C66.5304 31.198 66.4135 31.3315 66.3134 31.4764C66.2046 31.6298 66.0651 31.761 65.9031 31.8624C65.8165 31.9324 65.7227 31.9937 65.6231 32.0455C65.5124 32.1061 65.407 32.175 65.3076 32.2516C65.2779 32.3319 65.2396 32.4091 65.1933 32.4819C65.167 32.5125 65.145 32.5464 65.1282 32.5827C65.1103 32.6285 65.1032 32.6776 65.1076 32.7264C65.1076 32.7889 65.1076 32.9018 65.1019 33.0641C65.0979 33.2422 65.0814 33.4198 65.0528 33.5958C65.0226 33.757 65.0304 33.9226 65.0756 34.0804C65.1014 34.175 65.1521 34.2616 65.2227 34.332C65.2934 34.4025 65.3816 34.4544 65.4791 34.4828C65.6521 34.4257 65.8134 34.34 65.9557 34.2295C66.0977 34.1185 66.2325 33.9991 66.3592 33.8721C66.3866 33.882 66.4026 33.8798 66.4072 33.8721C66.4117 33.8644 66.4266 33.8513 66.4529 33.848C66.5508 33.7581 66.6543 33.6739 66.7626 33.5958C66.8714 33.5187 66.956 33.4144 67.0072 33.2943L67.0586 33.2318H67.0392C67.0817 33.1775 67.1359 33.1326 67.1981 33.1002C67.2659 33.058 67.3135 32.9918 67.3307 32.916V32.9336C67.3547 32.9182 67.3878 32.8963 67.4301 32.8656C67.4506 32.8499 67.4648 32.828 67.4704 32.8034C67.4761 32.7789 67.4727 32.7532 67.461 32.7307C67.4723 32.7403 67.487 32.7454 67.5021 32.745V32.7077C67.5353 32.6661 67.5695 32.6222 67.6016 32.574C67.6241 32.5379 67.6531 32.506 67.6873 32.4797C67.8239 32.3405 67.9485 32.1909 68.0599 32.0323L68.3913 31.562C68.5011 31.4048 68.623 31.2403 68.7571 31.0686C68.9029 30.8844 69.0638 30.7117 69.2383 30.5522C69.2741 30.5217 69.303 30.4843 69.3228 30.4425C69.3411 30.4066 69.3629 30.3725 69.388 30.3405C69.4088 30.3299 69.427 30.3153 69.4415 30.2975C69.4561 30.2798 69.4667 30.2593 69.4726 30.2375C69.4935 30.1824 69.5195 30.1292 69.5503 30.0785C69.612 30.1585 69.6646 30.1717 69.692 30.118C69.749 30.0727 69.8015 30.0225 69.8486 29.9678C69.8899 29.9154 69.9281 29.8609 69.9629 29.8044C69.9682 29.8096 69.9748 29.8135 69.9819 29.8159C69.9891 29.8182 69.9968 29.819 70.0043 29.818C70.0119 29.817 70.0191 29.8144 70.0254 29.8104C70.0317 29.8063 70.0369 29.8009 70.0406 29.7945L70.0063 29.8362L70.0646 29.8296C70.059 29.8363 70.0549 29.8441 70.0525 29.8524C70.0502 29.8607 70.0496 29.8693 70.0509 29.8779C70.0509 29.8961 70.0395 29.9071 70.0166 29.9107C69.98 29.9588 69.9471 30.0093 69.9183 30.0621C69.876 30.1366 69.8658 30.1662 69.8909 30.1498C69.8692 30.194 69.8415 30.2353 69.8086 30.2726C69.7867 30.2954 69.7732 30.3245 69.7701 30.3553C69.7671 30.3862 69.7745 30.4172 69.7915 30.4436C69.7915 30.4557 69.7972 30.4436 69.8052 30.3954C69.8132 30.3471 69.828 30.3263 69.8543 30.323L69.9549 30.1991C69.9458 30.2254 69.9435 30.2375 69.9549 30.2375C69.9663 30.2375 69.9709 30.2287 69.9812 30.2156C69.9915 30.2024 70.0018 30.1936 70.0086 30.1936C70.0155 30.1936 70.0201 30.2101 70.0246 30.2473C70.0349 30.221 70.0246 30.2353 69.9915 30.289C69.9672 30.3315 69.9397 30.3721 69.9092 30.4107L69.9263 30.3899C69.9263 30.403 69.9263 30.4096 69.9092 30.4107C69.8527 30.5917 69.7451 30.7541 69.5983 30.88C69.5983 30.9677 69.5823 31.0225 69.5503 31.0444C69.5211 31.0659 69.4949 31.091 69.4726 31.119C69.4726 31.0949 69.4829 31.0773 69.5149 31.0675C69.5469 31.0576 69.5709 31.0269 69.5903 30.9743C69.4966 31.0598 69.4509 31.1091 69.4531 31.1212C69.4378 31.1214 69.4229 31.1259 69.4101 31.1341C69.3973 31.1422 69.3873 31.1538 69.3811 31.1672C69.3712 31.1916 69.3676 31.218 69.3709 31.244V31.2802C69.3477 31.2954 69.3301 31.3173 69.3206 31.3427C69.3113 31.3682 69.2936 31.3901 69.2703 31.4052C69.2806 31.392 69.2783 31.3975 69.2623 31.4249L69.1903 31.5455L69.38 31.4271ZM63.8561 32.7198C63.8595 32.7445 63.8595 32.7696 63.8561 32.7943C63.8526 32.8194 63.8526 32.8449 63.8561 32.87C63.846 32.8804 63.8382 32.8927 63.8333 32.906C63.8284 32.9194 63.8264 32.9337 63.8275 32.9478C63.8294 32.9798 63.8267 33.0119 63.8195 33.0432V33.0608C63.8032 33.142 63.7975 33.2249 63.8024 33.3075C63.8024 33.3941 63.8024 33.4818 63.8024 33.5695C63.8163 33.584 63.8258 33.6019 63.8301 33.6212C63.8343 33.6405 63.833 33.6605 63.8264 33.6791C63.813 33.7092 63.8072 33.7419 63.8092 33.7745L63.8926 33.9708C63.9164 34.1474 63.9717 34.3188 64.0561 34.4773C64.1499 34.65 64.2978 34.7899 64.479 34.8775C64.4478 34.8537 64.4208 34.8252 64.399 34.7931C64.3831 34.7678 64.3639 34.7446 64.3418 34.724C64.2595 34.5969 64.183 34.4806 64.1132 34.3765C64.0376 34.2628 63.991 34.1335 63.9772 33.9993C63.9296 33.605 63.9377 33.2063 64.0012 32.8141C63.9924 32.7412 63.9924 32.6676 64.0012 32.5948C64.0117 32.5295 64.0066 32.4628 63.9864 32.3996C63.8858 32.4369 63.8366 32.4862 63.8389 32.5487C63.8412 32.6112 63.8504 32.6693 63.8561 32.7198ZM64.9133 28.6181L64.8139 28.6115C64.8013 28.6115 64.8139 28.5863 64.863 28.5304L64.9133 28.6181ZM65.8883 31.0302C65.8882 31.0328 65.8887 31.0353 65.8898 31.0377C65.891 31.04 65.8927 31.0421 65.8948 31.0437C65.8969 31.0453 65.8994 31.0464 65.902 31.0469C65.9046 31.0474 65.9074 31.0473 65.91 31.0466C65.9351 31.0466 65.9477 31.0357 65.9465 31.0236C66.1041 30.9142 66.2358 30.7741 66.3329 30.6125C66.4302 30.4424 66.5021 30.2601 66.5466 30.0708C66.529 30.0689 66.5127 30.0611 66.5004 30.0489C66.4881 30.0367 66.4806 30.0208 66.4792 30.0039L66.55 29.9393L66.5946 29.2211C66.5797 29.2053 66.5695 29.186 66.5651 29.1652C66.5607 29.1444 66.5622 29.1228 66.5695 29.1027C66.5772 29.0865 66.5812 29.0689 66.5812 29.0512C66.5812 29.0334 66.5772 29.0158 66.5695 28.9996L66.4677 29.049C66.42 29.0819 66.3809 29.1251 66.3534 29.175C66.3112 29.2551 66.2654 29.3516 66.2151 29.4634C66.1667 29.5713 66.1003 29.6709 66.0185 29.7583L65.8757 30.0193C65.8482 30.1103 65.8105 30.2276 65.7614 30.3701C65.7122 30.5127 65.6722 30.6618 65.6334 30.8164C65.5945 30.971 65.5591 31.1223 65.5259 31.2703C65.4928 31.4183 65.4631 31.5433 65.4368 31.6464C65.5258 31.5545 65.6082 31.4571 65.6837 31.3547C65.7685 31.2583 65.8375 31.15 65.8883 31.0335V31.0302ZM69.7035 31.0488C69.7309 31.0576 69.7252 31.0642 69.6863 31.0686L69.6097 31.0784C69.5937 31.0554 69.6097 31.0477 69.6452 31.0554C69.6806 31.0631 69.7046 31.0642 69.7035 31.0521V31.0488ZM69.8315 30.8295C69.8314 30.8465 69.8267 30.8631 69.8178 30.8778C69.8062 30.9001 69.7962 30.9232 69.788 30.9469C69.756 30.9019 69.7697 30.8624 69.8315 30.8306V30.8295ZM69.8418 30.6026C69.8543 30.6026 69.8555 30.6136 69.8418 30.6399C69.8384 30.6515 69.8315 30.6619 69.8219 30.6697C69.8123 30.6775 69.8005 30.6824 69.788 30.6837C69.7938 30.6639 69.8053 30.646 69.8212 30.6322C69.8273 30.6301 69.8326 30.6262 69.8363 30.6211C69.84 30.616 69.8419 30.6099 69.8418 30.6037V30.6026ZM70.0143 30.4326L69.9812 30.4732L70.0143 30.4326ZM70.0143 30.1136L69.9629 30.1761V30.1574L70.0143 30.1136ZM70.0646 30.0511C70.0646 30.0642 70.0498 30.0906 70.0166 30.1322V30.0949L70.0326 30.0741V30.0928L70.0646 30.0511ZM70.0406 30.0171C70.0829 29.9371 70.0978 29.9075 70.0863 29.9173L70.0406 30.0171Z" fill="#00583D"/>
<path d="M72.8824 39.6563C72.7788 39.7842 72.7105 39.935 72.6835 40.0949C72.7006 40.017 72.7166 39.9469 72.7349 39.8822C72.7532 39.8175 72.7715 39.7583 72.7909 39.7068H72.7715L72.7544 39.7276V39.7462L72.6755 39.8866C72.6469 39.8778 72.6401 39.869 72.6515 39.8613C72.6573 39.8586 72.662 39.8541 72.6649 39.8486C72.6677 39.843 72.6687 39.8367 72.6675 39.8306C72.617 39.8799 72.578 39.939 72.5532 40.0039C72.5298 40.0647 72.4979 40.1223 72.4583 40.1749C72.4286 40.153 72.4263 40.1344 72.4503 40.119C72.4737 40.1042 72.4917 40.0827 72.5018 40.0576C72.4309 40.1157 72.3978 40.1672 72.4023 40.2001C72.3453 40.2556 72.3006 40.3216 72.2709 40.3942C72.2393 40.4671 72.2011 40.5372 72.1566 40.6036H72.176L71.872 40.9775H71.8526C71.844 40.9894 71.8308 40.9977 71.816 41.0005C71.816 40.9753 71.8308 40.9611 71.8697 40.9567C71.8689 40.9495 71.8698 40.9423 71.8721 40.9355C71.8745 40.9287 71.8783 40.9225 71.8834 40.9172L71.7371 40.9907L71.8263 40.9249C71.8263 40.9117 71.8046 40.9205 71.7611 40.9512C71.7188 40.9808 71.712 41.0005 71.7394 41.0093C71.7203 41.0296 71.7066 41.0541 71.6994 41.0806C71.6937 41.1032 71.6869 41.1255 71.6788 41.1474C71.648 41.1146 71.6285 41.1167 71.6205 41.1551C71.6125 41.1935 71.5943 41.2012 71.5657 41.1803C71.5554 41.2067 71.5565 41.2154 71.5657 41.2078C71.5714 41.2034 71.5784 41.201 71.5857 41.201C71.593 41.201 71.6 41.2034 71.6057 41.2078C71.5712 41.2476 71.533 41.2843 71.4914 41.3174C71.4377 41.3613 71.3908 41.3733 71.3485 41.3536C71.3234 41.3536 71.3119 41.3667 71.3142 41.3854C71.3155 41.3939 71.315 41.4026 71.3126 41.4109C71.3103 41.4192 71.3061 41.4269 71.3005 41.4336C71.2601 41.4678 71.2219 41.5045 71.1862 41.5433C71.1452 41.5855 71.0895 41.612 71.0296 41.6178C70.9462 41.6781 70.8993 41.7209 70.8902 41.7472L70.2616 42.0279L70.177 42.132C70.1507 42.132 70.137 42.132 70.1358 42.1178C70.1347 42.1035 70.121 42.1002 70.0947 42.1035C70.0942 42.1011 70.0943 42.0985 70.0949 42.0961C70.0955 42.0936 70.0967 42.0913 70.0983 42.0893C70.0999 42.0874 70.102 42.0858 70.1043 42.0846C70.1066 42.0835 70.1092 42.0828 70.1118 42.0827C70.1145 42.0828 70.1172 42.0823 70.1197 42.0812C70.1221 42.0801 70.1242 42.0785 70.1259 42.0764C70.1276 42.0744 70.1287 42.072 70.1293 42.0695C70.1298 42.067 70.1297 42.0644 70.129 42.0619C70.0935 42.0782 70.0534 42.0832 70.0147 42.0761C69.9747 42.0684 69.9495 42.0761 69.9393 42.1035C69.8572 42.1381 69.7655 42.1454 69.6787 42.1244C69.5971 42.1044 69.5136 42.0923 69.4295 42.0882L69.3335 42.1002C69.2372 42.1128 69.1393 42.105 69.0466 42.0772C68.9549 42.0493 68.8676 42.0095 68.7871 41.9588C68.7619 41.9163 68.7212 41.8843 68.6729 41.8689C68.6116 41.8455 68.561 41.8019 68.53 41.7461C68.5252 41.7531 68.5226 41.7613 68.5226 41.7697C68.5226 41.778 68.5252 41.7862 68.53 41.7932C68.5382 41.8071 68.5436 41.8224 68.546 41.8382C68.5284 41.821 68.5154 41.7999 68.5083 41.7768C68.4972 41.7459 68.4769 41.7189 68.45 41.6989L68.4625 41.6419C68.3711 41.5699 68.3043 41.4733 68.2705 41.3645C68.2282 41.2439 68.186 41.1178 68.1437 40.9852L68.2008 40.9786C68.2111 40.9523 68.2122 40.9391 68.2008 40.9402C68.1894 40.9413 68.1905 40.9293 68.1871 40.904C68.2122 40.904 68.2294 40.9304 68.2374 40.9918C68.1795 40.6271 68.168 40.2571 68.2031 39.8899C68.2323 39.5259 68.3008 39.1657 68.4077 38.8154L68.4168 38.8888C68.3605 39.0787 68.3298 39.2747 68.3254 39.4721C68.3195 39.6792 68.2969 39.8856 68.258 40.0894L68.2797 40.1058C68.2613 40.1864 68.2555 40.2692 68.2625 40.3514C68.2682 40.4512 68.2762 40.5313 68.2831 40.5927C68.2991 40.3032 68.3162 40.0105 68.3368 39.7155C68.3549 39.4346 68.4008 39.1559 68.474 38.8833C68.5527 38.5079 68.6588 38.1382 68.7917 37.7771C68.922 37.424 69.0565 37.0768 69.1952 36.7355L69.4398 36.1993C69.4894 36.1098 69.5471 36.0247 69.6124 35.9449C69.6774 35.863 69.7284 35.7715 69.7632 35.6741C69.8196 35.6047 69.8779 35.5257 69.9381 35.4373C69.9954 35.3523 70.0604 35.2723 70.1324 35.1983C70.2399 35.0239 70.3484 34.854 70.4582 34.6917C70.5697 34.5252 70.693 34.3662 70.8273 34.2159C70.8605 34.1454 70.9048 34.0803 70.9588 34.0229C71.0159 33.9593 71.0731 33.8935 71.1279 33.8245L71.6331 33.1831L72.312 32.5395C72.312 32.3399 72.312 32.1996 72.312 32.1173C72.312 32.0351 72.312 31.9671 72.312 31.9112C72.312 31.8553 72.312 31.7917 72.312 31.7226C72.312 31.6535 72.32 31.5318 72.3235 31.3553C72.3208 31.3554 72.3183 31.3561 72.3159 31.3572C72.3136 31.3584 72.3115 31.36 72.3099 31.362C72.3083 31.364 72.3071 31.3662 72.3065 31.3687C72.3059 31.3711 72.3058 31.3737 72.3063 31.3762C72.33 31.316 72.3352 31.2505 72.3212 31.1876C72.3028 31.2382 72.2718 31.2837 72.2309 31.3202C72.2096 31.3418 72.1942 31.3682 72.186 31.3968C72.1778 31.4255 72.1771 31.4557 72.184 31.4847H72.2035L72.0126 31.6755L71.8263 32.0537C71.8903 32.0472 71.9303 32.0011 71.9406 31.9189C71.9465 31.86 71.9661 31.803 71.9977 31.7522C72.0289 31.7175 72.068 31.6901 72.112 31.6722C72.1676 31.6467 72.2135 31.6053 72.2435 31.5538C72.1687 31.6885 72.0839 31.8178 71.9897 31.9408C71.8949 32.0647 71.8091 32.1809 71.7314 32.2895C71.7086 32.318 71.6663 32.3662 71.6034 32.4364C71.5517 32.4859 71.5159 32.5488 71.5005 32.6173L71.3485 32.8037V32.8223L71.3839 32.7993C71.3655 32.833 71.3598 32.8717 71.368 32.9089C71.3771 32.9265 71.3679 32.9375 71.3428 32.9396C71.3177 32.9418 71.3142 32.9462 71.3348 32.9506C71.3554 32.955 71.3531 32.9638 71.3348 32.9791C71.2834 32.9857 71.2491 32.9791 71.2331 32.9539C71.2133 32.991 71.1987 33.0304 71.1897 33.0712C71.1835 33.0931 71.1728 33.1136 71.1583 33.1314C71.1437 33.1493 71.1257 33.1643 71.1051 33.1754C71.1359 33.2094 71.1291 33.2313 71.0845 33.2434C71.0399 33.2554 71.0205 33.273 71.0228 33.2971C71.0251 33.3212 71.0525 33.319 71.0616 33.2971C71.0708 33.2752 71.0902 33.2686 71.1199 33.2905C71.0608 33.3265 70.9994 33.3587 70.9359 33.387C70.882 33.4082 70.833 33.4395 70.7919 33.4791C70.7348 33.5108 70.6808 33.5475 70.6307 33.5887C70.5731 33.6236 70.5103 33.6498 70.4444 33.6666C70.3845 33.673 70.3269 33.6929 70.2764 33.7247C70.228 33.7315 70.179 33.734 70.1301 33.7324C70.1141 33.7311 70.098 33.7341 70.0835 33.7408C70.0691 33.7476 70.0567 33.7579 70.0478 33.7707C69.8099 33.7814 69.575 33.7167 69.3792 33.5865C69.2872 33.5897 69.1961 33.568 69.1163 33.524C69.0458 33.4829 68.9806 33.434 68.922 33.3782C68.8157 33.2316 68.7472 33.0629 68.722 32.8859C68.6995 32.704 68.6888 32.5209 68.69 32.3377C68.693 31.8037 68.7423 31.2708 68.8374 30.7446C68.9296 30.2461 69.0291 29.7531 69.1357 29.2655L69.1529 29.2447C69.1883 29.0145 69.2306 28.782 69.2786 28.5452C69.3255 28.3108 69.3469 28.0723 69.3426 27.8336C69.432 27.7324 69.5112 27.6234 69.5792 27.508C69.6142 27.4504 69.6662 27.4041 69.7287 27.375C69.7912 27.3459 69.8613 27.3353 69.9301 27.3446C69.9541 27.3293 69.9655 27.3183 69.9655 27.3128C69.9655 27.3073 69.9655 27.2964 69.9804 27.2821C70.0238 27.315 70.0524 27.3304 70.065 27.3293C70.129 27.3216 70.1656 27.3293 70.1793 27.3435C70.193 27.3578 70.2318 27.372 70.3096 27.3753C70.3455 27.4132 70.3895 27.4432 70.4387 27.463C70.4936 27.4882 70.553 27.5146 70.625 27.5442C70.713 27.622 70.8079 27.7042 70.9108 27.792C71.0173 27.8857 71.0938 28.0067 71.1314 28.1406C71.1463 28.2446 71.14 28.3503 71.1131 28.452C71.0868 28.5496 71.0536 28.6505 71.0148 28.7546C71.0254 28.8209 71.0212 28.8885 71.0022 28.9531C70.9828 29.0123 70.9645 29.0737 70.9473 29.1384C70.9142 29.2919 70.8776 29.4366 70.833 29.5769C70.7924 29.7109 70.7679 29.8488 70.7599 29.9881L70.6616 30.5999C70.6209 30.8949 70.564 31.1877 70.4913 31.477C70.419 31.7685 70.3754 32.0658 70.361 32.3651C70.3435 32.4469 70.3312 32.5297 70.3244 32.6129C70.3132 32.6748 70.3179 32.7384 70.3381 32.7982C70.3381 32.8238 70.3599 32.8402 70.4033 32.8475C70.5448 32.7623 70.6624 32.6452 70.7462 32.5066L71.0708 32.068C71.1817 31.9155 71.2821 31.7562 71.3714 31.591C71.462 31.4796 71.5416 31.3603 71.6091 31.2347C71.6751 31.1129 71.748 30.9947 71.8274 30.8806L72.0652 30.442C72.0722 30.4403 72.0787 30.4367 72.0837 30.4317C72.0888 30.4266 72.0922 30.4203 72.0937 30.4135C72.0972 30.4098 72.1015 30.4069 72.1062 30.4048C72.1109 30.4027 72.116 30.4016 72.1212 30.4014C72.1882 30.2521 72.2436 30.0981 72.2869 29.9409C72.3293 29.7835 72.3847 29.6295 72.4526 29.4804C72.494 29.4036 72.5229 29.3212 72.5383 29.2359C72.5441 29.1789 72.5521 29.0934 72.5646 28.9794L72.6503 28.1253C72.6721 28.0979 72.6744 28.0847 72.6503 28.0869C72.6263 28.0891 72.6206 28.0869 72.6183 28.0715C72.6532 28.044 72.6761 28.0048 72.6824 27.9619C72.6898 27.928 72.6921 27.8933 72.6892 27.8588C72.7338 27.8029 72.7555 27.7634 72.7521 27.7382L72.8481 27.7273L73.031 27.4806C73.0363 27.4858 73.0428 27.4897 73.05 27.492C73.0572 27.4944 73.0648 27.4951 73.0724 27.4942C73.0799 27.4932 73.0871 27.4906 73.0934 27.4865C73.0997 27.4825 73.1049 27.477 73.1087 27.4707C73.2055 27.4645 73.3027 27.4753 73.3956 27.5025C73.4461 27.5215 73.495 27.5442 73.5419 27.5705C73.5761 27.5913 73.615 27.611 73.6562 27.6319C73.7128 27.6535 73.7747 27.6588 73.8345 27.6472V27.6845C73.8905 27.7152 73.9396 27.7415 73.9808 27.7613C74.0263 27.7831 74.0692 27.8095 74.1088 27.8402C74.1088 27.8895 74.1248 27.9191 74.1396 27.9301C74.1441 27.9812 74.1605 28.0307 74.1876 28.0748C74.2152 28.1253 74.226 28.1827 74.2185 28.2393C74.2133 28.3238 74.1975 28.4073 74.1716 28.4882C74.1439 28.5816 74.13 28.6783 74.1305 28.7754C74.1238 28.8996 74.1105 29.0233 74.0905 29.146C74.071 29.2557 74.0562 29.3653 74.0448 29.475C74.0219 29.703 74.0013 29.896 73.983 30.0539C73.9636 30.2129 73.9476 30.362 73.9328 30.5012C73.9179 30.6405 73.9076 30.7885 73.9019 30.9453C73.8968 31.1354 73.9017 31.3257 73.9167 31.5154C73.9441 31.5151 73.9705 31.5054 73.991 31.488C74.0036 31.488 74.0036 31.488 73.991 31.4979C73.9785 31.5077 73.9796 31.5077 73.991 31.5066C74.2278 31.387 74.4568 31.2537 74.6768 31.1075C74.9591 30.9233 75.2574 30.7326 75.5706 30.5319C75.8838 30.3313 76.1878 30.1438 76.485 29.9651C76.7121 29.8198 76.9556 29.6996 77.2108 29.6065C77.2005 29.6165 77.194 29.6295 77.1923 29.6434C77.1907 29.6573 77.1939 29.6714 77.2016 29.6833C77.229 29.6921 77.245 29.691 77.2496 29.6778C77.251 29.672 77.2543 29.6667 77.2591 29.6628C77.2638 29.6588 77.2697 29.6564 77.2759 29.6559C77.2759 29.68 77.2759 29.6931 77.2622 29.6942C77.2485 29.6953 77.245 29.7217 77.2519 29.771L77.2885 29.748C77.2885 29.7721 77.3022 29.7842 77.3216 29.7809C77.3411 29.7776 77.3445 29.7809 77.3342 29.7984C77.357 29.7961 77.3794 29.7906 77.4005 29.782C77.4338 29.7695 77.4688 29.7621 77.5045 29.76C77.473 29.7783 77.4387 29.7917 77.4028 29.7995C77.3814 29.8047 77.3615 29.8143 77.3445 29.8278C77.3275 29.8413 77.3138 29.8582 77.3045 29.8773C77.3341 29.8725 77.3627 29.8628 77.3891 29.8488C77.4188 29.8324 77.4588 29.8094 77.5034 29.7787C77.4592 29.8196 77.4066 29.8514 77.349 29.8719C77.2989 29.8874 77.2524 29.9119 77.2119 29.9442C77.2005 29.9574 77.2119 29.9629 77.253 29.9585C77.2178 30.0186 77.1615 30.0649 77.0942 30.089C77.0625 30.0997 77.0336 30.1168 77.0094 30.1391C76.9851 30.1614 76.9661 30.1884 76.9536 30.2183H76.973C76.9657 30.2194 76.9587 30.2221 76.9526 30.226C76.9465 30.23 76.9414 30.2353 76.9376 30.2414C76.9349 30.2413 76.9322 30.2418 76.9298 30.2429C76.9273 30.244 76.9252 30.2456 76.9235 30.2476C76.9218 30.2496 76.9207 30.252 76.9202 30.2545C76.9196 30.2571 76.9197 30.2597 76.9204 30.2622H76.901L76.7376 30.3565L76.7776 30.3707C76.8249 30.3464 76.8703 30.3189 76.9136 30.2885C76.9448 30.2657 76.9786 30.2462 77.0142 30.2304C77.0405 30.181 77.0842 30.1421 77.1376 30.1207C77.1868 30.1021 77.2302 30.0846 77.2668 30.0681C77.2472 30.1062 77.2177 30.1386 77.181 30.1624C77.1353 30.1984 77.0876 30.2321 77.0382 30.2633C77.0903 30.2511 77.1406 30.2326 77.1879 30.2085C77.166 30.2352 77.1388 30.2576 77.1079 30.2743C77.077 30.2909 77.0498 30.3133 77.0279 30.34C76.976 30.3463 76.9276 30.3682 76.8896 30.4025C76.8456 30.4399 76.7904 30.4629 76.7319 30.4683L76.749 30.4475L76.6793 30.5122V30.4749C76.584 30.5824 76.4745 30.6774 76.3535 30.7578C76.1569 30.904 75.9394 31.0611 75.7009 31.2292C75.4609 31.3948 75.2437 31.5582 75.03 31.7204C74.8963 31.815 74.7757 31.9255 74.6711 32.0494C74.6368 32.0481 74.6027 32.0553 74.5721 32.0703C74.5414 32.0852 74.5153 32.1075 74.4962 32.1349C74.4517 32.1907 74.4032 32.2434 74.3511 32.2928C74.374 32.2911 74.3965 32.2855 74.4174 32.2763C74.4506 32.2639 74.4857 32.2565 74.5214 32.2544C74.5104 32.268 74.4966 32.2793 74.4809 32.2876C74.4651 32.2959 74.4478 32.301 74.4299 32.3026C74.4121 32.3043 74.3947 32.3094 74.379 32.3177C74.3633 32.326 74.3495 32.3373 74.3385 32.3509C74.2861 32.416 74.2245 32.474 74.1556 32.523C74.0891 32.5686 74.0268 32.6196 73.9693 32.6754L73.8847 32.7796C73.8939 33.1534 73.8847 33.4922 73.8687 33.7949C73.8527 34.0975 73.8322 34.4527 73.8196 34.8507C73.8321 35.4271 73.8046 36.0036 73.7373 36.5765C73.6784 37.103 73.5876 37.6258 73.4653 38.1422C73.4771 37.926 73.5115 37.7114 73.5681 37.5019C73.6271 37.275 73.6533 37.0415 73.6459 36.8078C73.5735 37.166 73.5102 37.511 73.4561 37.8428C73.3988 38.1837 73.3144 38.5198 73.2035 38.8483C73.191 38.8483 73.1875 38.8483 73.1955 38.8592C73.2035 38.8702 73.1955 38.8592 73.1658 38.8526L73.1578 38.7978C73.106 38.9034 73.065 39.0135 73.0355 39.1267C73.0035 39.243 72.9715 39.3658 72.9361 39.4951V39.5127C72.9224 39.5127 72.9178 39.528 72.9212 39.5522C72.9186 39.5523 72.916 39.5529 72.9137 39.5541C72.9114 39.5552 72.9093 39.5568 72.9077 39.5588C72.9061 39.5608 72.9049 39.5631 72.9043 39.5655C72.9037 39.568 72.9036 39.5705 72.9041 39.573H72.9235L72.8801 39.6903L72.8824 39.6563ZM68.1094 40.7078C68.1231 40.7078 68.1311 40.7177 68.1334 40.7429C68.1334 40.7308 68.1334 40.7253 68.1219 40.7253C68.1105 40.7253 68.1117 40.7198 68.1094 40.7078ZM68.2317 41.0499C68.2534 41.1102 68.2694 41.1672 68.2831 41.222C68.299 41.2813 68.3228 41.3385 68.354 41.3919C68.3642 41.3747 68.3683 41.3547 68.3659 41.335C68.3634 41.3152 68.3544 41.2968 68.3402 41.2823C68.325 41.2649 68.3139 41.2445 68.3076 41.2225C68.3012 41.2006 68.2999 41.1776 68.3037 41.1551C68.3037 41.1431 68.2888 41.1376 68.2637 41.1409L68.2488 41.0312L68.2317 41.0499ZM68.7186 41.9489C68.7083 41.9632 68.6946 41.9588 68.6786 41.9347C68.6662 41.9189 68.6569 41.901 68.6511 41.882L68.7186 41.9489ZM68.4237 38.7397C68.4385 38.7496 68.4397 38.7594 68.4237 38.7671C68.4184 38.7701 68.4141 38.7745 68.4113 38.7797C68.4085 38.785 68.4072 38.7909 68.4077 38.7967C68.406 38.7867 68.4084 38.7765 68.4145 38.7682C68.4214 38.7602 68.4246 38.75 68.4237 38.7397V38.7397ZM68.5208 38.4272C68.5203 38.4739 68.5093 38.5198 68.4888 38.5621C68.4738 38.5878 68.4608 38.6145 68.45 38.6421C68.452 38.5655 68.4766 38.491 68.5208 38.4272V38.4272ZM68.6991 37.8439C68.6854 37.9327 68.6649 38.0292 68.6386 38.1323C68.6139 38.2341 68.5663 38.3295 68.4991 38.4119L68.6991 37.8439ZM68.7357 37.6707L68.77 37.629L68.7357 37.6707ZM70.0227 37.1806C70.0081 37.252 69.9839 37.3213 69.9507 37.3867C69.9166 37.4562 69.8935 37.5301 69.8821 37.606C69.8786 37.5604 69.886 37.5146 69.9038 37.4722L69.8535 37.5336L69.7472 37.7716C69.7488 37.7819 69.7464 37.7924 69.7404 37.8012C69.7364 37.8103 69.7364 37.8206 69.7404 37.8297V37.811L69.6992 37.947L69.7129 38.0566C69.7004 38.0566 69.6912 38.0413 69.6867 38.004L69.5724 38.186L69.6009 38.1071L69.8387 37.5172L69.7415 37.5282C69.7444 37.5377 69.7437 37.5478 69.7395 37.5569C69.7354 37.5659 69.728 37.5732 69.7187 37.5775C69.7004 37.5863 69.7061 37.6016 69.7347 37.6225V37.6038C69.7347 37.5918 69.7347 37.5852 69.7518 37.5841C69.7417 37.608 69.7382 37.6341 69.7415 37.6597C69.7456 37.6798 69.7415 37.7006 69.7301 37.7178C69.727 37.7157 69.7245 37.7129 69.7228 37.7097C69.7211 37.7064 69.7202 37.7028 69.7202 37.6992C69.7202 37.6956 69.7211 37.692 69.7228 37.6887C69.7245 37.6855 69.727 37.6827 69.7301 37.6806C69.7332 37.6784 69.7357 37.6756 69.7374 37.6724C69.7391 37.6691 69.74 37.6656 69.74 37.6619C69.74 37.6583 69.7391 37.6547 69.7374 37.6515C69.7357 37.6482 69.7332 37.6454 69.7301 37.6433C69.7157 37.6464 69.703 37.6546 69.6947 37.6663C69.7159 37.6252 69.7331 37.5822 69.7461 37.538C69.7538 37.522 69.7578 37.5047 69.7578 37.4871C69.7578 37.4694 69.7538 37.452 69.7461 37.4361C69.7667 37.3955 69.7907 37.3527 69.817 37.3056C69.8408 37.2638 69.8726 37.2266 69.9107 37.1959C69.9677 36.9745 70.0481 36.7592 70.1507 36.5534C70.265 36.3462 70.369 36.1489 70.4753 35.9614C70.478 35.9615 70.4807 35.961 70.4831 35.9599C70.4856 35.9588 70.4877 35.9572 70.4894 35.9551C70.491 35.9531 70.4922 35.9507 70.4927 35.9482C70.4933 35.9457 70.4932 35.943 70.4924 35.9405C70.4924 35.9285 70.5039 35.9329 70.5336 35.9548C70.5477 35.8974 70.5738 35.8433 70.6102 35.7958C70.6471 35.7481 70.6736 35.6936 70.6879 35.6357L70.7165 35.5579C70.7186 35.5677 70.7186 35.5777 70.7167 35.5875C70.7147 35.5973 70.7108 35.6066 70.705 35.6149C70.7147 35.6027 70.7263 35.592 70.7393 35.5831C70.7555 35.5699 70.767 35.5523 70.7725 35.5327C70.7725 35.5206 70.7725 35.514 70.7599 35.5151C70.7473 35.5162 70.7599 35.5031 70.7656 35.4768C70.799 35.4497 70.8279 35.4179 70.8513 35.3825C70.8578 35.3686 70.8676 35.3565 70.8799 35.3469C70.8922 35.3374 70.9067 35.3308 70.9222 35.3277V35.3638C70.9332 35.3323 70.942 35.3 70.9485 35.2673C70.9575 35.2266 70.9721 35.1871 70.9919 35.15C70.9919 35.1621 71.0011 35.1676 71.0136 35.1654C71.0085 35.1706 71.0047 35.1769 71.0023 35.1837C71 35.1905 70.9991 35.1977 70.9999 35.2049C70.9999 35.2193 70.9946 35.2332 70.9851 35.2443C70.9851 35.2701 70.9797 35.2955 70.9693 35.3193C70.9589 35.343 70.9437 35.3645 70.9245 35.3825C70.8929 35.4084 70.8639 35.4371 70.8376 35.468L70.7485 35.6873C70.8365 35.5645 70.9211 35.4351 71.0011 35.3013C71.0811 35.1676 71.1668 35.0371 71.2548 34.9143C71.1942 34.9472 71.1588 34.9823 71.1519 35.0239C71.1457 35.0456 71.1349 35.0659 71.1204 35.0836C71.1059 35.1013 71.0879 35.1161 71.0674 35.127C71.0786 35.1123 71.0864 35.0955 71.0902 35.0777C71.0924 35.068 71.098 35.0594 71.1062 35.0534C71.1144 35.0473 71.1245 35.0443 71.1348 35.0448C71.1259 35.0283 71.1237 35.0092 71.1285 34.9912C71.1334 34.9732 71.145 34.9575 71.1611 34.9472V34.9658C71.1954 34.9242 71.2114 34.8979 71.2091 34.8858C71.2677 34.7704 71.347 34.6657 71.4434 34.5766C71.5371 34.4866 71.6144 34.3821 71.672 34.2674C71.688 34.2485 71.7018 34.2279 71.7131 34.206C71.7131 34.1929 71.7326 34.1852 71.7588 34.1819C71.7551 34.1684 71.7549 34.1542 71.7583 34.1406C71.7617 34.127 71.7686 34.1145 71.7783 34.104C71.8003 34.085 71.8206 34.064 71.8389 34.0415V34.0777C71.8651 34.0165 71.904 33.9609 71.9531 33.9144C71.9938 33.8786 72.0282 33.8368 72.0549 33.7905H72.0926C72.1009 33.7605 72.1152 33.7324 72.1348 33.7077C72.1544 33.6831 72.1789 33.6624 72.2069 33.6468C72.2193 33.641 72.2302 33.6326 72.2388 33.6222C72.2474 33.6118 72.2534 33.5997 72.2565 33.5868C72.2596 33.5738 72.2596 33.5604 72.2565 33.5474C72.2535 33.5345 72.2475 33.5224 72.2389 33.512C72.2469 33.4736 72.2389 33.4583 72.2332 33.4659C72.2275 33.4736 72.2137 33.4659 72.2103 33.4396C72.2376 33.4132 72.2539 33.3781 72.256 33.3409L72.0937 33.5405C72.0374 33.6104 71.9738 33.6747 71.904 33.7324C71.904 33.7444 71.904 33.7477 71.9143 33.74C71.9246 33.7324 71.9246 33.74 71.928 33.7663C71.8983 33.7455 71.8731 33.7543 71.8526 33.7949C71.832 33.8354 71.8343 33.8595 71.8628 33.8683C71.8717 33.8426 71.8894 33.8205 71.9131 33.8058C71.9263 33.7962 71.9374 33.7842 71.9456 33.7705C71.9539 33.7567 71.9591 33.7415 71.9611 33.7258C71.9886 33.7346 72.0034 33.7258 72.008 33.7104C72.0126 33.6951 72.016 33.694 72.0194 33.7181C71.9919 33.7528 71.967 33.7895 71.9451 33.8277C71.9189 33.8749 71.8971 33.887 71.8811 33.8639C71.8135 33.905 71.763 33.9674 71.7383 34.0405C71.7216 34.1018 71.6838 34.156 71.6308 34.194C71.6194 34.2071 71.6171 34.217 71.6251 34.2225C71.6331 34.2279 71.6251 34.2378 71.5988 34.2532L71.0971 34.911V34.8924C71.0731 34.9077 71.0628 34.9242 71.0651 34.9428C71.0674 34.9614 71.0491 34.9735 71.0102 34.9779C71.0103 34.9804 71.011 34.9829 71.0122 34.9851C71.0134 34.9874 71.0151 34.9893 71.0171 34.9909C71.0192 34.9924 71.0216 34.9936 71.0241 34.9942C71.0267 34.9948 71.0293 34.9948 71.0319 34.9943C71.0445 34.9943 71.0399 34.9998 71.0148 35.0141C70.8833 35.2059 70.7587 35.4011 70.641 35.6028C70.5233 35.8046 70.3999 36.0063 70.2696 36.2092H70.2501L70.1358 36.5052C70.1221 36.4942 70.121 36.4844 70.1358 36.4767C70.1507 36.469 70.1473 36.4603 70.1358 36.4493L69.977 36.7311C69.9935 36.7559 70.0007 36.7854 69.9974 36.8147C69.9941 36.8441 69.9804 36.8714 69.9587 36.8922C69.9131 36.9412 69.8803 36.9998 69.8627 37.0633C69.8621 37.0022 69.8783 36.9421 69.9095 36.889C69.9398 36.8397 69.9625 36.7865 69.977 36.7311C69.8947 36.9028 69.8128 37.0783 69.7312 37.2574C69.6508 37.4327 69.5824 37.6129 69.5266 37.7968C69.4969 37.8626 69.4683 37.9229 69.4421 37.9755C69.4166 38.0294 69.4075 38.089 69.4158 38.1476L69.5369 37.8702C69.4901 38.0139 69.4478 38.1465 69.4123 38.2704C69.3752 38.3942 69.3177 38.5116 69.242 38.618C69.2445 38.7487 69.2315 38.8793 69.2032 39.0072C69.1756 39.1408 69.1702 39.2777 69.1872 39.4129C69.162 39.4129 69.1495 39.4228 69.1506 39.4359C69.1518 39.4491 69.162 39.4688 69.1735 39.4612C69.1849 39.4535 69.186 39.4612 69.1735 39.4699C69.1609 39.4787 69.1438 39.4831 69.1586 39.5006C69.171 39.5128 69.1797 39.5279 69.1838 39.5445H69.1643C69.149 39.5836 69.1443 39.6259 69.1506 39.6673C69.1643 39.7059 69.1728 39.7461 69.1758 39.7868H69.1369C69.1243 39.7868 69.1197 39.801 69.1232 39.8263C69.1685 39.9806 69.179 40.1425 69.154 40.301C69.1265 40.4499 69.1571 40.6032 69.2398 40.7319C69.2571 40.6631 69.2477 40.5906 69.2135 40.528C69.2352 40.4802 69.2384 40.4265 69.2226 40.3767C69.208 40.3266 69.2117 40.2732 69.2329 40.2254L69.2443 40.3186C69.2814 40.3863 69.3014 40.4614 69.3026 40.5378C69.3044 40.6141 69.3239 40.689 69.3598 40.7571C69.3598 40.744 69.3598 40.7231 69.3518 40.6924C69.3438 40.6617 69.3518 40.6453 69.3643 40.6442C69.3873 40.7163 69.4064 40.7895 69.4215 40.8635C69.4369 40.9322 69.4619 40.9986 69.4958 41.0608C69.5307 41.0899 69.556 41.1279 69.5689 41.1705C69.5945 41.2324 69.6334 41.2885 69.6832 41.3349C69.6981 41.3459 69.7072 41.3349 69.7107 41.313C69.7141 41.2911 69.7107 41.2812 69.7175 41.2933C69.7381 41.3536 69.7747 41.3832 69.8318 41.3832H70.0467C70.0558 41.3569 70.0535 41.3382 70.0398 41.3273C70.025 41.3163 70.0295 41.3031 70.0547 41.2878C70.0695 41.3119 70.0833 41.3163 70.0947 41.302C70.1061 41.2878 70.1198 41.2933 70.1358 41.3163C70.3422 41.2128 70.5267 41.0734 70.6799 40.9051C70.8246 40.7401 70.9557 40.5645 71.0719 40.38H71.0914C71.0888 40.3806 71.086 40.3807 71.0834 40.3802C71.0807 40.3797 71.0783 40.3786 71.0761 40.377C71.074 40.3754 71.0723 40.3734 71.0712 40.371C71.0701 40.3687 71.0695 40.3661 71.0696 40.3635V40.3449C71.0948 40.3449 71.1085 40.3449 71.1096 40.3591C71.1108 40.3734 71.1176 40.3712 71.1291 40.3591C71.1405 40.3471 71.1211 40.3229 71.1154 40.3229C71.1096 40.3229 71.1039 40.3229 71.1028 40.3065C71.1068 40.3004 71.1121 40.2951 71.1185 40.2912C71.1248 40.2872 71.1319 40.2846 71.1394 40.2835C71.1908 40.1738 71.2342 40.0872 71.2708 40.0137C71.3074 39.9403 71.3508 39.8515 71.4022 39.7451C71.4822 39.5609 71.56 39.3702 71.6308 39.1739C71.7062 38.9667 71.7605 38.753 71.7931 38.5358C71.8249 38.5002 71.8434 38.4554 71.8457 38.4086C71.8456 38.367 71.8498 38.3255 71.8583 38.2847C71.8833 38.2323 71.8995 38.1764 71.9063 38.1191C71.9146 38.0598 71.9146 37.9997 71.9063 37.9404C71.9043 37.9105 71.9106 37.8806 71.9246 37.8538C71.9393 37.8212 71.9586 37.7906 71.9817 37.7628H72.0011L72.0149 37.7233C72.027 37.7078 72.0355 37.69 72.0401 37.6712C72.0446 37.6523 72.045 37.6327 72.0411 37.6137C72.0342 37.573 72.0342 37.5315 72.0411 37.4909C72.0263 37.4799 72.0297 37.4766 72.0492 37.4799C72.0686 37.4832 72.0709 37.4744 72.056 37.4514C72.0663 37.3418 72.0754 37.2245 72.08 37.1115C72.0793 37.013 72.1117 36.9168 72.1726 36.8374C72.1542 36.8093 72.1445 36.7768 72.1445 36.7437C72.1445 36.7105 72.1542 36.678 72.1726 36.6499C72.2062 36.6112 72.2241 36.5622 72.2229 36.5118C72.2102 36.4243 72.2121 36.3355 72.2286 36.2486C72.2446 36.1681 72.2407 36.0851 72.2172 36.0063C72.2171 36.0012 72.2158 35.9962 72.2134 35.9917C72.2111 35.9871 72.2076 35.9831 72.2035 35.98C72.1939 35.9668 72.1887 35.9511 72.1886 35.9351C72.1901 35.8974 72.2064 35.8618 72.2343 35.8353C72.2439 35.7956 72.2439 35.7544 72.2343 35.7147C72.2242 35.6816 72.2166 35.6479 72.2115 35.6138C72.2206 35.5875 72.2309 35.559 72.2389 35.5261C72.2482 35.4921 72.2505 35.4568 72.2457 35.4219C72.2663 35.288 72.2716 35.1524 72.2617 35.0174C72.2515 34.8869 72.2435 34.7476 72.2377 34.5985C72.2537 34.5794 72.2655 34.5575 72.2726 34.534C72.2797 34.5104 72.2818 34.4858 72.2789 34.4615C72.288 34.3354 72.2972 34.2038 72.3052 34.0646C72.3158 33.9396 72.2999 33.8139 72.2583 33.6951C72.2474 33.7444 72.2269 33.7913 72.1977 33.8332L72.176 33.8179C72.0981 33.9616 71.9927 34.0899 71.8651 34.1961C71.7438 34.2956 71.6463 34.419 71.5794 34.558C71.5648 34.5613 71.5518 34.5694 71.5428 34.581V34.5996C71.528 34.5887 71.5211 34.5898 71.5234 34.5996C71.5257 34.6095 71.512 34.6194 71.4868 34.6227L71.2331 35.0842H71.2136L71.2354 35.1007L71.1588 35.1095C71.1348 35.1248 71.1314 35.1467 71.1474 35.1763C71.1634 35.2059 71.1611 35.2279 71.1371 35.2432L71.1245 35.1511C71.1016 35.1785 71.0982 35.1983 71.1131 35.2092C71.1279 35.2202 71.1222 35.2323 71.0982 35.2476V35.229C71.0593 35.2345 71.0433 35.2608 71.0502 35.3101L70.9873 35.4307V35.4121L70.8548 35.5963C70.8573 35.5958 70.86 35.5959 70.8625 35.5965C70.8651 35.5971 70.8675 35.5982 70.8695 35.5997C70.8716 35.6013 70.8733 35.6033 70.8745 35.6055C70.8757 35.6077 70.8764 35.6102 70.8765 35.6127C70.8575 35.622 70.8422 35.637 70.833 35.6555C70.8217 35.677 70.8079 35.6972 70.7919 35.7158H70.8102C70.8239 35.7158 70.8296 35.7158 70.8285 35.7048C70.8273 35.6939 70.8285 35.6949 70.8468 35.6928C70.8482 35.6976 70.8484 35.7028 70.8474 35.7078C70.8464 35.7128 70.8442 35.7175 70.841 35.7215C70.8378 35.7255 70.8336 35.7288 70.8289 35.731C70.8241 35.7333 70.8189 35.7344 70.8136 35.7344L70.7965 35.7553C70.7839 35.7553 70.7759 35.7553 70.7748 35.7388C70.7599 35.8287 70.7336 35.8759 70.6947 35.8802C70.7176 35.8528 70.721 35.8331 70.7073 35.8221C70.6639 35.8901 70.6239 35.957 70.5862 36.0239C70.5414 36.1069 70.5032 36.193 70.4719 36.2815L70.4113 36.4197C70.4048 36.4162 70.3998 36.4107 70.3971 36.4041C70.3944 36.3975 70.3942 36.3903 70.3964 36.3835C70.4022 36.3703 70.3964 36.3649 70.385 36.366L70.3919 36.4219C70.376 36.459 70.354 36.4934 70.3267 36.5238C70.2925 36.5663 70.2655 36.6137 70.2467 36.6642C70.198 36.696 70.1627 36.7434 70.1473 36.798C70.131 36.8524 70.0954 36.8997 70.0467 36.9317C70.0913 36.8758 70.113 36.8363 70.1096 36.8122C70.037 36.8879 69.982 36.9777 69.9484 37.0753C69.9084 37.1826 69.8767 37.2926 69.8535 37.4043C69.8295 37.4196 69.8181 37.4306 69.8181 37.4372C69.8181 37.4437 69.8067 37.4481 69.7815 37.4503C69.7815 37.4755 69.7918 37.4865 69.8055 37.4854C69.8192 37.4843 69.8261 37.4953 69.8295 37.5205L69.8901 37.3812C69.8901 37.3862 69.8913 37.3912 69.8934 37.3957C69.8956 37.4002 69.8988 37.4043 69.9027 37.4076C69.9095 37.4141 69.913 37.4076 69.9118 37.3977V37.4163C69.9261 37.3296 69.9643 37.2482 70.0227 37.1806V37.1806ZM69.1792 40.506C69.1912 40.5147 69.1997 40.5271 69.2032 40.5411C69.2032 40.5291 69.1975 40.5236 69.1906 40.5236C69.1838 40.5236 69.1803 40.5192 69.1792 40.506V40.506ZM69.186 40.4118C69.1793 40.4045 69.1743 40.396 69.1713 40.3867C69.1683 40.3774 69.1675 40.3676 69.1689 40.358C69.174 40.3459 69.176 40.3327 69.1746 40.3197L69.186 40.4118ZM69.186 39.7934C69.1808 39.8492 69.1846 39.9054 69.1975 39.96C69.2128 40.0321 69.2193 40.1057 69.2169 40.1793L69.1586 40.1859C69.1756 40.1695 69.1868 40.1484 69.1906 40.1256C69.1998 40.0993 69.2055 40.0894 69.2055 40.096C69.2055 40.1026 69.2055 40.0872 69.1998 40.0499C69.1792 40.0894 69.17 40.0653 69.1712 39.9787C69.171 39.9167 69.1756 39.8547 69.1849 39.7934H69.186ZM69.186 39.6618C69.1731 39.6618 69.1685 39.675 69.1723 39.7013C69.1718 39.6941 69.1729 39.6868 69.1755 39.6801C69.178 39.6733 69.182 39.667 69.1872 39.6618H69.186ZM69.2386 39.9184C69.2417 39.9494 69.2417 39.9806 69.2386 40.0116C69.2378 40.0614 69.2409 40.1113 69.2478 40.1607C69.2235 40.082 69.2195 39.9988 69.2363 39.9184H69.2386ZM69.2466 39.823C69.2146 39.7769 69.2055 39.7528 69.218 39.7517C69.2249 39.801 69.2363 39.8252 69.2478 39.823H69.2466ZM69.2843 40.2692C69.3095 40.2692 69.322 40.2802 69.3186 40.312C69.3168 40.3415 69.3107 40.3707 69.3003 40.3986L69.2843 40.2692ZM69.2249 39.357C69.2327 39.4156 69.2373 39.4745 69.2386 39.5335C69.2384 39.5804 69.2411 39.6273 69.2466 39.6739C69.2466 39.6859 69.2466 39.6925 69.2295 39.6936C69.1993 39.5492 69.1935 39.4012 69.2123 39.255C69.2306 39.0971 69.2443 38.9425 69.25 38.7912C69.2693 38.7692 69.2861 38.7453 69.3003 38.72C69.3119 38.6977 69.3219 38.6746 69.3301 38.6509L69.2249 39.357ZM69.3118 39.5763C69.2856 39.708 69.27 39.8414 69.2649 39.9754C69.2376 39.8393 69.2544 39.6985 69.3129 39.5719L69.3118 39.5763ZM69.2363 39.7539V39.7166V39.698V39.7539ZM69.2283 38.9294C69.2328 38.9658 69.2328 39.0026 69.2283 39.039C69.2215 39.0906 69.2146 39.1344 69.2066 39.1728C69.201 39.1291 69.201 39.0849 69.2066 39.0412C69.2106 39.0019 69.2182 38.963 69.2295 38.925L69.2283 38.9294ZM69.3003 39.4842C69.2924 39.4718 69.2873 39.458 69.2854 39.4437C69.2834 39.4293 69.2846 39.4147 69.2889 39.4009C69.2981 39.368 69.3072 39.3395 69.3175 39.3131L69.3003 39.4842ZM69.3506 39.2715L69.3152 39.2945V39.2759C69.2912 39.2912 69.2855 39.289 69.2958 39.2693C69.3061 39.2495 69.3243 39.2441 69.3518 39.2528L69.3506 39.2715ZM69.3758 39.0061C69.3758 38.993 69.3758 38.9864 69.3918 38.9853L69.3769 39.175V39.1377C69.3232 39.1191 69.3072 39.1015 69.3312 39.0862C69.2878 39.0544 69.2855 39.0357 69.3243 39.0314C69.3236 39.0289 69.3235 39.0262 69.3241 39.0237C69.3246 39.0212 69.3257 39.0188 69.3274 39.0168C69.3291 39.0147 69.3312 39.0131 69.3337 39.012C69.3361 39.0109 69.3388 39.0104 69.3415 39.0105L69.3758 39.0061ZM69.3369 39.1607C69.3368 39.1633 69.3374 39.1659 69.3385 39.1682C69.3396 39.1706 69.3413 39.1726 69.3434 39.1742C69.3455 39.1758 69.348 39.1769 69.3507 39.1775C69.3533 39.178 69.356 39.1779 69.3586 39.1772H69.3769L69.3461 39.2364C69.3435 39.2371 69.3407 39.2372 69.3381 39.2367C69.3354 39.2362 69.333 39.2351 69.3308 39.2334C69.3287 39.2318 69.327 39.2298 69.3259 39.2274C69.3248 39.2251 69.3242 39.2225 69.3243 39.2199C69.3237 39.198 69.3284 39.1762 69.3381 39.1563L69.3369 39.1607ZM69.2923 38.5095C69.3175 38.5095 69.3278 38.4799 69.3209 38.4305C69.2878 38.4678 69.2786 38.4941 69.2935 38.5051L69.2923 38.5095ZM69.4238 38.925L69.4089 38.9645V38.9272L69.4238 38.925ZM69.4112 38.8329C69.3986 38.8329 69.3998 38.8406 69.4112 38.8515V38.8329ZM69.3815 38.4426H69.3621C69.3659 38.4366 69.3711 38.4314 69.3772 38.4275C69.3833 38.4235 69.3902 38.4208 69.3975 38.4196L69.3815 38.4426ZM69.4409 38.754H69.4215C69.4341 38.7386 69.4398 38.7375 69.4421 38.7463L69.4409 38.754ZM69.4649 38.4886C69.4659 38.503 69.461 38.5172 69.4512 38.5281L69.4649 38.4886ZM69.5541 38.8724C69.5358 38.8373 69.5324 38.8121 69.5438 38.7989L69.5541 38.8724ZM69.4215 37.6871C69.4592 37.6871 69.4741 37.6718 69.4649 37.6543C69.4558 37.6367 69.4649 37.6192 69.5072 37.6027C69.4443 37.606 69.4158 37.6334 69.4226 37.6828L69.4215 37.6871ZM69.5358 38.2562L69.5666 38.1959V38.2332L69.5358 38.2562ZM69.5838 38.0248L69.5689 38.0643C69.5758 38.0139 69.5849 37.9547 69.5975 37.902C69.6039 37.856 69.6215 37.812 69.6489 37.7738V37.7913C69.6569 37.7529 69.6741 37.7332 69.7004 37.7299C69.7006 37.7894 69.6881 37.8484 69.6638 37.9031C69.6341 37.981 69.6112 38.0523 69.5929 38.1224L69.5838 38.0248ZM69.5678 37.7453C69.5815 37.7562 69.5826 37.765 69.5678 37.7738C69.5622 37.7765 69.5577 37.7808 69.5548 37.7861C69.5519 37.7914 69.5509 37.7974 69.5518 37.8034C69.5392 37.788 69.5438 37.7683 69.5666 37.7409L69.5678 37.7453ZM69.6158 37.8143L69.5815 37.856C69.5792 37.8509 69.5782 37.8452 69.5788 37.8397C69.5793 37.8341 69.5814 37.8287 69.5847 37.8241C69.588 37.8195 69.5925 37.8158 69.5978 37.8133C69.603 37.8108 69.6088 37.8097 69.6146 37.8099L69.6158 37.8143ZM69.6501 37.4733C69.6764 37.4821 69.6821 37.4975 69.6649 37.5183C69.6478 37.5391 69.6467 37.5545 69.6649 37.5654C69.6406 37.5808 69.6314 37.5852 69.6375 37.5786C69.6375 37.5709 69.6375 37.5687 69.6261 37.5698C69.6261 37.6334 69.6067 37.6729 69.5827 37.6882C69.5747 37.6478 69.5837 37.6061 69.6078 37.572C69.6297 37.5412 69.6438 37.5059 69.6489 37.469L69.6501 37.4733ZM69.6158 37.8143C69.5998 37.7913 69.5975 37.776 69.6158 37.7694C69.6211 37.7662 69.6254 37.7616 69.628 37.7562C69.6307 37.7507 69.6316 37.7446 69.6307 37.7387C69.6455 37.7496 69.6467 37.7584 69.6307 37.7661C69.6147 37.7738 69.6112 37.7858 69.6146 37.8099L69.6158 37.8143ZM69.7472 38.0808L69.7644 38.0599L69.7472 38.0808ZM69.7472 37.7803L69.7324 37.8198L69.7849 37.776L69.7472 37.7803ZM70.4639 41.8371C70.4306 41.8402 70.3985 41.8507 70.3701 41.8678C70.3461 41.882 70.3153 41.8985 70.2787 41.916C70.295 41.9274 70.3136 41.9354 70.3332 41.9395C70.3529 41.9437 70.3732 41.9439 70.393 41.9402C70.4144 41.9377 70.4341 41.9277 70.4483 41.9121C70.4624 41.8965 70.47 41.8764 70.4696 41.8557C70.4456 41.8711 70.4399 41.8755 70.4524 41.8678C70.4574 41.8641 70.4611 41.8592 70.4631 41.8535C70.4651 41.8479 70.4654 41.8418 70.4639 41.836V41.8371ZM69.8078 37.9569C69.7804 37.947 69.7758 37.9316 69.7918 37.9108C69.8095 37.89 69.8231 37.8662 69.8318 37.8406C69.8358 37.8634 69.8322 37.8868 69.8215 37.9075C69.8121 37.9224 69.8073 37.9395 69.8078 37.9569V37.9569ZM69.7324 37.0655C69.7598 37.0742 69.769 37.0479 69.761 36.9865C69.7369 36.992 69.7278 37.015 69.7335 37.0655H69.7324ZM69.8467 37.0655C69.8283 37.0859 69.8146 37.1098 69.8067 37.1356C69.8038 37.1538 69.7959 37.1708 69.7838 37.185C69.7864 37.1843 69.7891 37.1842 69.7918 37.1847C69.7944 37.1852 69.7969 37.1863 69.799 37.1879C69.8011 37.1895 69.8028 37.1916 69.804 37.1939C69.8051 37.1963 69.8056 37.1988 69.8055 37.2014V37.2201L69.8352 37.1411H69.8547L69.8467 37.0655ZM69.9038 37.3582V37.3407C69.9233 37.288 69.9427 37.2387 69.9633 37.1927C69.9819 37.1504 70.0104 37.1129 70.0467 37.083L69.9038 37.3582ZM70.113 36.5458C70.1108 36.5725 70.1042 36.5988 70.0935 36.6236C70.0755 36.6693 70.0421 36.7079 69.9987 36.7333C70.0257 36.6664 70.0661 36.6054 70.1176 36.5534L70.113 36.5458ZM70.0593 37.0403C70.0455 37.0403 70.0421 37.0403 70.0478 37.0326C70.0535 37.0249 70.0478 37.0227 70.0375 37.0238C70.0273 37.0249 70.0375 37.0085 70.0455 37.0139C70.0535 37.0194 70.0558 37.0139 70.0547 37.003H70.0924L70.0593 37.0403ZM70.1381 36.8999H70.1198C70.1198 36.8868 70.1198 36.8802 70.1358 36.8791L70.1381 36.8999ZM70.1701 36.8396C70.1623 36.8286 70.1581 36.8156 70.1581 36.8023C70.1581 36.789 70.1623 36.776 70.1701 36.7651C70.1872 36.7362 70.2067 36.7087 70.2284 36.6828C70.1873 36.7749 70.1747 36.8265 70.1896 36.8374L70.1701 36.8396ZM70.1553 36.73C70.1545 36.7241 70.1557 36.7181 70.1585 36.7128C70.1614 36.7075 70.1658 36.7032 70.1713 36.7004C70.1765 36.6971 70.1808 36.6925 70.1836 36.6871C70.1864 36.6817 70.1877 36.6757 70.1873 36.6697C70.1576 36.7146 70.1507 36.7344 70.1598 36.7333L70.1553 36.73ZM70.2444 36.6631L70.2284 36.6839L70.2444 36.6631ZM70.3461 36.5381C70.3301 36.6159 70.3039 36.662 70.2661 36.6795C70.2781 36.6717 70.288 36.6613 70.295 36.6491C70.3019 36.6369 70.3057 36.6233 70.3061 36.6094C70.3075 36.5955 70.3122 36.5821 70.32 36.5703C70.3277 36.5585 70.3382 36.5486 70.3507 36.5414L70.3461 36.5381ZM70.2764 36.4526C70.2993 36.4252 70.3267 36.3879 70.3599 36.3429C70.3914 36.2991 70.4118 36.2488 70.4193 36.196C70.4012 36.2448 70.3775 36.2916 70.3484 36.3353C70.3237 36.3742 70.3012 36.4145 70.281 36.4559L70.2764 36.4526ZM70.4284 36.4164C70.4422 36.4274 70.4433 36.4361 70.4284 36.4438C70.4229 36.4468 70.4184 36.4513 70.4155 36.4568C70.4127 36.4623 70.4116 36.4684 70.4124 36.4745C70.3976 36.4635 70.3964 36.4537 70.4124 36.446C70.418 36.4438 70.4229 36.4402 70.4265 36.4356C70.4302 36.431 70.4324 36.4255 70.433 36.4197L70.4284 36.4164ZM71.3051 41.5696C71.3051 41.5816 71.2948 41.5893 71.2685 41.5926C71.2811 41.5926 71.2879 41.5871 71.2868 41.5816C71.2857 41.5761 71.2937 41.5696 71.3097 41.5674L71.3051 41.5696ZM70.641 36.0962C70.5976 36.0644 70.6147 36.0436 70.6913 36.0337C70.6913 36.0469 70.6845 36.0568 70.6662 36.0655C70.6479 36.0743 70.6433 36.082 70.6456 36.094L70.641 36.0962ZM71.5062 40.8525C71.4692 40.8827 71.4341 40.9149 71.4011 40.949C71.3627 40.99 71.3289 41.0348 71.3005 41.0828C71.32 41.0573 71.344 41.0354 71.3714 41.0181C71.3979 41 71.4214 40.9782 71.4411 40.9534C71.4572 40.9584 71.4747 40.9574 71.49 40.9504C71.5053 40.9435 71.5172 40.9312 71.5234 40.9161C71.5394 40.8821 71.56 40.8646 71.5851 40.8613C71.5851 40.8372 71.5771 40.8251 71.5714 40.8262C71.5657 40.8273 71.5611 40.8207 71.5588 40.8087C71.5565 40.7966 71.5405 40.8087 71.5405 40.8196C71.5405 40.8306 71.5405 40.8295 71.5234 40.8317C71.5131 40.8569 71.5142 40.8668 71.5234 40.8591C71.5325 40.8514 71.5417 40.8536 71.544 40.8657C71.5463 40.8777 71.5245 40.8744 71.5268 40.8865C71.5291 40.8986 71.5211 40.8997 71.5074 40.8865C71.5371 40.8591 71.536 40.847 71.5108 40.8503L71.5062 40.8525ZM70.8525 35.7717C70.8399 35.7717 70.8285 35.787 70.8193 35.8123L70.7896 35.8912C70.777 35.8912 70.7736 35.8912 70.7793 35.8835C70.785 35.8759 70.7793 35.8737 70.769 35.8748C70.7559 35.892 70.7484 35.9126 70.7473 35.934C70.7468 35.945 70.7421 35.9554 70.7341 35.9633C70.7261 35.9711 70.7153 35.9759 70.7039 35.9767C70.7245 35.9362 70.745 35.8934 70.7645 35.8474C70.7798 35.8068 70.8104 35.7732 70.8502 35.7531L70.8525 35.7717ZM70.697 35.6204L70.6799 35.6412H70.6993L70.697 35.6204ZM71.5463 41.1661C71.5556 41.1532 71.5676 41.1423 71.5817 41.1343C71.5931 41.1266 71.5977 41.1102 71.5943 41.085C71.5908 41.0597 71.568 41.0795 71.5577 41.0992C71.5486 41.1196 71.5462 41.1422 71.5508 41.1639L71.5463 41.1661ZM71.8228 41.04C71.8013 41.0938 71.7677 41.1425 71.7246 41.1825C71.6847 41.215 71.6427 41.245 71.5988 41.2724C71.6217 41.2454 71.656 41.2088 71.7017 41.1628C71.7403 41.1182 71.7824 41.0764 71.8274 41.0378L71.8228 41.04ZM70.9016 35.6906C70.9142 35.6906 70.9302 35.6621 70.9496 35.6094C70.9508 35.6204 70.9393 35.6467 70.9062 35.6884L70.9016 35.6906ZM71.7131 40.9402C71.6834 40.9183 71.6583 40.9249 71.6365 40.9589C71.6148 40.9929 71.624 41.0126 71.6651 41.0203C71.707 40.9681 71.7529 40.919 71.8023 40.8733C71.8507 40.8262 71.8895 40.7708 71.9166 40.71C72.0069 40.699 72.0309 40.6639 72.0011 40.6058C71.9097 40.6451 71.8354 40.7138 71.7908 40.7999H71.8103C71.8011 40.8262 71.7988 40.8361 71.8046 40.8295C71.8103 40.8229 71.8137 40.8295 71.8148 40.8372C71.793 40.8411 71.7722 40.8493 71.7538 40.8611C71.7353 40.873 71.7195 40.8884 71.7074 40.9062L71.7131 40.9402ZM70.9519 35.4779C70.9142 35.4833 70.9165 35.5009 70.9588 35.5338C70.9588 35.5217 70.9588 35.5151 70.9668 35.514C70.9748 35.5129 70.9725 35.4998 70.9565 35.4757L70.9519 35.4779ZM71.6285 40.8942C71.6557 40.8594 71.6802 40.8228 71.7017 40.7845C71.733 40.7337 71.7786 40.6923 71.8331 40.665C71.8293 40.6452 71.8339 40.6247 71.8457 40.608C71.8518 40.5997 71.8561 40.5902 71.8583 40.5802C71.8604 40.5702 71.8604 40.5599 71.8583 40.5499C71.8072 40.5976 71.7613 40.6502 71.7211 40.7067C71.6826 40.7636 71.654 40.8262 71.6365 40.892L71.6285 40.8942ZM71.6434 40.7045C71.6331 40.7308 71.6354 40.7429 71.6434 40.7418V40.7045ZM71.0296 35.1281C71.0206 35.1397 71.0077 35.1478 70.9931 35.1511L71.0296 35.1281ZM71.1234 35.3978C71.1359 35.3978 71.1302 35.3978 71.1051 35.4099C71.0799 35.4219 71.0685 35.4296 71.0696 35.4417C71.0445 35.4417 71.0422 35.4329 71.0696 35.4044C71.0948 35.4044 71.0959 35.4044 71.0696 35.423L71.1234 35.3978ZM71.2045 35.2761C71.205 35.2831 71.2041 35.2901 71.2017 35.2967C71.1994 35.3032 71.1957 35.3093 71.1908 35.3145C71.1847 35.3229 71.1805 35.3323 71.1783 35.3423C71.1762 35.3523 71.1761 35.3626 71.1782 35.3726C71.1707 35.3636 71.166 35.3528 71.1645 35.3414C71.1631 35.3299 71.1651 35.3183 71.1702 35.3079C71.1794 35.2904 71.1919 35.2794 71.2045 35.2783V35.2761ZM71.9154 40.3493C71.9322 40.3332 71.9434 40.3125 71.9474 40.29C71.9474 40.3021 71.9371 40.312 71.912 40.3218C71.8868 40.3317 71.888 40.3427 71.9154 40.3514V40.3493ZM71.5017 34.8474C71.4891 34.8474 71.5017 34.8288 71.5337 34.7871C71.5162 34.8041 71.505 34.826 71.5017 34.8496V34.8474ZM71.5691 34.7641C71.5605 34.7756 71.548 34.7837 71.5337 34.7871C71.5476 34.7843 71.5602 34.7769 71.5691 34.7663V34.7641ZM72.3795 40.6135L72.4378 40.4567C72.4605 40.3981 72.4934 40.3437 72.5349 40.2955C72.497 40.3504 72.4685 40.4107 72.4503 40.4742C72.4376 40.5257 72.4134 40.574 72.3795 40.6157V40.6135ZM72.4435 40.1936C72.4572 40.2045 72.4435 40.2297 72.4138 40.2714C72.4134 40.2644 72.4146 40.2574 72.4171 40.2508C72.4197 40.2442 72.4236 40.2382 72.4286 40.233C72.4381 40.2227 72.4434 40.2095 72.4435 40.1958V40.1936ZM72.9738 39.4557C72.9872 39.3528 73.0137 39.2519 73.0527 39.1553C73.0927 39.0566 73.1315 38.9557 73.167 38.8504C73.1535 38.9521 73.1302 39.0523 73.0972 39.1498C73.0625 39.2547 73.0213 39.3576 72.9738 39.4579V39.4557ZM73.215 39.0522C73.215 39.0763 73.183 39.13 73.119 39.2134C73.1185 39.198 73.1218 39.1828 73.1285 39.1689C73.1353 39.155 73.1453 39.1429 73.1578 39.1333C73.1826 39.1112 73.202 39.0843 73.215 39.0544V39.0522ZM72.2229 31.4792L72.2583 31.4562C72.2606 31.4704 72.248 31.4781 72.2229 31.4814V31.4792ZM72.2903 31.3959C72.2803 31.4068 72.275 31.4209 72.2755 31.4354V31.454H72.256L72.2903 31.3959ZM72.2903 31.3959L72.3075 31.3751C72.3086 31.3904 72.3029 31.4003 72.2903 31.4003V31.3959ZM73.2641 38.8208C73.2893 38.8208 73.2938 38.8208 73.2756 38.8384C73.2685 38.8429 73.2627 38.8489 73.2585 38.8559C73.2543 38.863 73.2519 38.8709 73.2515 38.879V38.8417C73.2508 38.8376 73.2517 38.8335 73.2541 38.83C73.2564 38.8266 73.26 38.8241 73.2641 38.823V38.8208ZM72.3223 31.3751C72.312 31.3893 72.3052 31.3904 72.304 31.3751H72.3223ZM73.4516 38.1816C73.4411 38.2921 73.4121 38.4002 73.3658 38.5018C73.3209 38.5971 73.2912 38.6984 73.2778 38.8022C73.2907 38.6997 73.3168 38.5992 73.3556 38.5029C73.3983 38.3988 73.4316 38.2913 73.455 38.1816H73.4516ZM75.1066 31.4003C75.1555 31.3927 75.2029 31.3779 75.2472 31.3564C75.3044 31.3296 75.3636 31.3069 75.4243 31.2884C75.4243 31.2629 75.4917 31.2047 75.6266 31.1141L76.0769 30.817C76.2392 30.711 76.3916 30.6149 76.5341 30.5286C76.6141 30.4849 76.6905 30.4354 76.7627 30.3806C76.7626 30.3781 76.7619 30.3756 76.7607 30.3734C76.7595 30.3711 76.7578 30.3692 76.7558 30.3676C76.7537 30.3661 76.7513 30.3649 76.7488 30.3643C76.7462 30.3637 76.7436 30.3637 76.741 30.3642C76.7383 30.3641 76.7356 30.3646 76.7332 30.3657C76.7307 30.3667 76.7286 30.3684 76.7269 30.3704C76.7252 30.3724 76.7241 30.3748 76.7236 30.3773C76.723 30.3799 76.7231 30.3825 76.7239 30.385V30.3663C76.6164 30.4394 76.4781 30.5308 76.309 30.6405C76.1398 30.7501 75.9741 30.8543 75.8118 30.9529C75.648 31.0538 75.5005 31.1492 75.3694 31.2391C75.2857 31.2985 75.1979 31.3523 75.1066 31.4003V31.4003ZM76.7799 30.4541C76.8001 30.4407 76.8215 30.4289 76.8439 30.419C76.8644 30.4073 76.8796 30.3884 76.8862 30.3663L76.7799 30.4541ZM76.9433 30.3598C76.9587 30.36 76.9739 30.3557 76.9867 30.3474C76.9996 30.3392 77.0095 30.3275 77.0153 30.3137V30.2951C76.957 30.34 76.9342 30.362 76.9467 30.3598H76.9433ZM77.2953 30.2063C77.2866 30.2179 77.2735 30.2258 77.2588 30.2282H77.2393L77.2953 30.2063ZM77.3502 30.1811C77.3359 30.1958 77.3163 30.2048 77.2953 30.2063L77.3502 30.1811ZM77.5971 29.8138C77.5809 29.8359 77.5598 29.8542 77.5354 29.8675C77.5171 29.8762 77.5102 29.8993 77.5148 29.9355C77.4885 29.9355 77.4782 29.9355 77.4828 29.9113C77.4874 29.8872 77.4691 29.885 77.4302 29.8894C77.4396 29.8768 77.4522 29.8668 77.4668 29.8603C77.4814 29.8537 77.4976 29.8509 77.5136 29.8521C77.5304 29.8537 77.5472 29.851 77.5625 29.8442C77.5777 29.8375 77.5909 29.827 77.6005 29.8138H77.5971Z" fill="#00583D"/>
<path d="M56.3181 40.9973V49.4639H61.3117V50.7456H54.9111V40.9973H56.3181Z" fill="#00583D"/>
<path d="M68.8958 48.5867H64.3365L63.4507 50.7456H61.9648L66.0155 40.9973H67.2202L71.2994 50.7456H69.7816L68.8958 48.5867ZM68.3723 47.305L66.6304 43.029L64.8737 47.305H68.3723Z" fill="#00583D"/>
<path d="M80.7806 45.8293C80.7806 48.6427 78.5884 50.7456 75.7424 50.7456H72.4941V40.9973H75.7516C78.5918 40.9973 80.7806 43.0443 80.7806 45.8293ZM79.3427 45.8293C79.3427 43.768 77.8569 42.278 75.8293 42.278H73.9023V49.4639H75.8327C77.8512 49.4639 79.3462 47.9179 79.3462 45.8293H79.3427Z" fill="#00583D"/>
<path d="M82.1896 40.9973L84.9488 45.0914L87.677 40.9973H89.3183L85.63 46.4422V50.7456H84.2218V46.4422L80.4912 40.9973H82.1896Z" fill="#00583D"/>
<path d="M90.336 49.9518C90.3331 49.7639 90.3885 49.5793 90.4952 49.4217C90.6019 49.264 90.7551 49.1404 90.9352 49.0665C91.1154 48.9926 91.3144 48.9718 91.5069 49.0067C91.6995 49.0417 91.8768 49.1307 92.0164 49.2626C92.156 49.3945 92.2516 49.5633 92.2909 49.7474C92.3302 49.9316 92.3115 50.1228 92.2372 50.2967C92.163 50.4706 92.0364 50.6194 91.8737 50.7242C91.711 50.8289 91.5195 50.8848 91.3236 50.8849C91.1944 50.8875 91.066 50.8653 90.9459 50.8195C90.8258 50.7737 90.7165 50.7053 90.6244 50.6183C90.5324 50.5314 90.4594 50.4276 90.4099 50.3131C90.3604 50.1986 90.3353 50.0757 90.336 49.9518V49.9518ZM92.0505 40.9973L91.9922 48.0298H90.6549L90.5978 40.9973H92.0505Z" fill="#00583D"/>
</svg>
