<svg width="500" height="500" viewBox="0 0 500 500" fill="none" xmlns="http://www.w3.org/2000/svg">
<g clip-path="url(#clip0)">
<rect width="500" height="500" fill="#126554"/>
<path d="M93.024 270.584L102.208 236.289L95.112 236.018L96.1084 232.987L103.3 231.983L106.479 220.307H113.757L110.577 232.533H119.241L119.337 236.105H109.564L100.033 268.419L105.578 269.065L111.86 260.812L112.674 261.449C108.948 269.309 104.305 273.466 101.489 273.466C99.6606 273.432 92.7467 271.685 93.024 270.584Z" fill="white"/>
<path d="M137.505 270.13C137.505 268.663 140.97 259.65 143.509 252.611C145.328 247.572 147.78 241.703 147.78 239.957C147.78 238.21 145.597 236.463 143.596 236.463C140.866 236.463 134.498 245.817 126.675 262.602L123.495 272.593L116.122 272.139C116.399 271.493 119.492 261.406 120.853 257.554C124.405 246.463 131.683 217.032 131.683 217.032C131.951 216.019 131.865 215.014 131.223 214.918L124.405 214.045L124.673 212.945L140.598 210.56L137.869 221.11C133.589 235.87 129.499 251.362 126.77 257.878L127.403 257.965C132.679 247.144 138.051 238.07 141.265 234.856C143.056 232.941 145.489 231.765 148.092 231.555C151.454 231.555 154.824 234.036 154.824 236.97C154.824 239.721 152.823 245.957 150.492 252.376C148.491 257.878 144.852 267.502 144.575 268.419L148.673 269.065L155.041 260.812L155.855 261.449C152.13 269.309 147.122 273.466 144.393 273.466C142.487 273.432 137.505 271.414 137.505 270.13Z" fill="white"/>
<path d="M161.002 260.227C161.002 246.743 172.187 231.337 183.286 231.337C189.108 231.337 192.929 234.367 192.929 238.856C192.929 244.821 185.651 248.122 169.458 252.707C168.968 254.709 168.695 256.759 168.644 258.821C168.644 265.152 171.243 268.427 176.103 268.427C180.011 268.427 182.922 266.314 187.652 260.174L188.519 260.812C184.421 267.327 179.058 273.379 172.594 273.379C165.733 273.432 161.002 267.379 161.002 260.227ZM186.128 238.123C186.123 236.908 185.642 235.745 184.79 234.886C183.938 234.027 182.784 233.542 181.579 233.538C179.846 233.538 178.391 234.463 176.935 235.835C174.336 238.455 171.295 244.568 169.657 251.327L169.839 251.424C182.194 247.476 186.11 244.088 186.11 238.123H186.128Z" fill="white"/>
<path d="M206.488 253.441C206.488 240.874 215.308 231.153 227.282 231.153C236.743 231.153 242.296 236.839 242.296 244.253C242.289 245.116 242.196 245.977 242.019 246.821C242.019 246.821 217.188 246.542 216.278 246.542C216.092 247.726 216 248.923 216.001 250.122C216.096 260.393 221.823 267.266 229.864 267.266C234.689 267.266 238.597 265.519 241.69 260.576L242.695 261.126C238.874 268.986 233.165 273.597 225.133 273.597C214.398 273.58 206.488 264.899 206.488 253.441ZM233.052 244.908C233.139 238.673 231.137 232.987 226.121 232.987C221.477 232.987 217.387 238.123 216.382 245.005L233.052 244.908Z" fill="white"/>
<path d="M245.086 270.864L247.356 270.497C250.631 269.947 252.182 268.384 257.181 261.965L263.003 254.262L253.637 240.69C250.544 236.201 249.089 234.577 246.628 234.271L245.173 234.001L244.904 232.621H266.096L265.828 234.001L264.008 234.271C261.097 234.551 261.366 236.289 263.913 240.053L269.189 248.026H269.285L273.556 241.913C277.559 236.228 277.472 234.664 273.374 234.298L271.555 234.027L271.286 232.647H287.566L287.297 234.027L285.019 234.394C281.839 234.848 280.019 236.411 275.194 243.013L270.281 249.336L280.47 264.183C283.563 268.497 285.2 270.296 287.401 270.602L288.77 270.785L289.134 272.253H268.011L268.28 270.881L269.917 270.602C272.924 270.235 272.742 268.585 270.194 264.829L264.13 255.659H263.948L258.853 262.995C254.764 268.681 254.764 270.331 258.767 270.602L260.855 270.881L261.037 272.253H244.809L245.086 270.864Z" fill="white"/>
<path d="M291.508 293.789L293.423 293.693C295.97 293.509 297.061 293.239 297.061 292.226V244.192C297.061 238.603 296.334 237.686 293.241 236.952L291.239 236.489L291.326 235.389L306.159 231.354L305.977 239.424L306.341 239.52C309.98 235.153 314.71 231.721 320.203 231.721C329.474 231.721 336.387 239.974 336.387 251.161C336.387 265.283 325.835 273.536 315.109 273.536C312.041 273.589 308.996 273.009 306.159 271.833H306.063V292.374C306.063 293.108 306.523 293.474 310.248 293.658L313.428 293.754L313.705 295.221H291.239L291.508 293.789ZM326.528 254.078C326.528 244.725 321.979 237.668 314.979 237.668C313.274 237.706 311.598 238.11 310.06 238.852C308.523 239.594 307.16 240.659 306.063 241.974V263.528C308.429 268.017 312.431 271.597 316.616 271.597C322.62 271.597 326.528 263.895 326.528 254.078Z" fill="white"/>
<path d="M341.828 253.441C341.828 240.874 350.648 231.153 362.622 231.153C372.083 231.153 377.628 236.839 377.628 244.253C377.624 245.116 377.534 245.976 377.36 246.821C377.36 246.821 352.52 246.542 351.619 246.542C351.433 247.726 351.34 248.923 351.341 250.122C351.437 260.393 357.164 267.266 365.204 267.266C370.021 267.266 373.937 265.519 377.03 260.576L378.027 261.126C374.206 268.986 368.496 273.597 360.473 273.597C349.739 273.58 341.828 264.899 341.828 253.441ZM368.384 244.908C368.479 238.673 366.478 232.987 361.452 232.987C356.817 232.987 352.719 238.123 351.723 245.005L368.384 244.908Z" fill="white"/>
<path d="M382.385 270.768L384.118 270.681C386.717 270.497 387.757 270.218 387.757 269.117V244.271C387.757 238.586 387.029 237.669 383.936 236.935L381.839 236.472L381.934 235.372L396.854 231.337L396.672 245.005H396.94C400.033 236.201 403.672 231.25 409.131 231.25C412.596 231.25 415.317 233.634 415.317 236.935C415.339 237.637 415.221 238.336 414.969 238.991C414.718 239.646 414.339 240.244 413.854 240.748C413.369 241.252 412.788 241.653 412.146 241.927C411.505 242.2 410.815 242.341 410.118 242.341C408.704 242.344 407.337 241.822 406.279 240.875C405.222 239.928 404.547 238.622 404.383 237.206C401.385 238.123 398.924 241.887 396.655 249.039V269.301C396.655 270.174 397.382 270.497 400.987 270.681L403.716 270.768L403.984 272.235H382.064L382.385 270.768Z" fill="white"/>
<path d="M425.739 262.148L426.199 237.302L418.921 237.022L419.735 234.734L425.471 230.367L433.84 223.582L435.201 223.861L435.114 232.656H449.124L447.85 236.9H435.114L434.568 260.742C434.473 265.781 436.751 268.078 441.387 268.078C444.13 268.071 446.792 267.133 448.942 265.414L449.392 266.331C445.667 270.279 441.023 273.397 436.11 273.397C429.378 273.432 425.653 269.947 425.739 262.148Z" fill="white"/>
<path d="M55.3613 190.107H57.9605V319.552H55.3613V190.107Z" fill="white"/>
</g>
<defs>
<clipPath id="clip0">
<rect width="500" height="500" fill="white"/>
</clipPath>
</defs>
</svg>
