<?xml version="1.0" ?><svg viewBox="0 0 32 32" xmlns="http://www.w3.org/2000/svg"><defs><style>.cls-1{fill:#030303;}.cls-2{fill:none;}</style></defs><title/><g data-name="Layer 2" id="Layer_2"><g data-name="Layer 4" id="Layer_4"><path class="cls-1" d="M24,6H8a5,5,0,0,0-5,5V21a5,5,0,0,0,5,5H24a5,5,0,0,0,5-5V11A5,5,0,0,0,24,6ZM8,8H24a3,3,0,0,1,2.7,1.72L16.6,17.3a1,1,0,0,1-1.2,0L5.3,9.72A3,3,0,0,1,8,8ZM24,24H8a3,3,0,0,1-3-3V12l9.2,6.9a3,3,0,0,0,3.6,0L27,12v9A3,3,0,0,1,24,24Z"/><rect class="cls-2" height="32" width="32"/></g></g></svg>