<?xml version="1.0" ?><svg data-name="Layer 1" id="Layer_1" viewBox="0 0 32 32" xmlns="http://www.w3.org/2000/svg"><defs><style>.cls-1{fill:#4d4d4d;}</style></defs><title/><path class="cls-1" d="M9,11H4a1,1,0,0,0-1,1V27.9a1,1,0,0,0,1,1H9a1,1,0,0,0,1-1V12A1,1,0,0,0,9,11ZM8,26.9H5V13H8Z"/><path class="cls-1" d="M6.5,3.5A3.5,3.5,0,1,0,10,7,3.5,3.5,0,0,0,6.5,3.5Zm0,5A1.5,1.5,0,1,1,8,7,1.5,1.5,0,0,1,6.5,8.5Z"/><path class="cls-1" d="M23,11a8.28,8.28,0,0,0-4,1,1,1,0,0,0-1-1H13a1,1,0,0,0-1,1V28a1,1,0,0,0,1,1h5a1,1,0,0,0,1-1V20c0-1,.56-2,1.5-2S22,19,22,20v8a1,1,0,0,0,1,1h5a1,1,0,0,0,1-1V18C29,16.18,27.9,11,23,11Zm4,16H24V20a3.74,3.74,0,0,0-3.5-4A3.74,3.74,0,0,0,17,20v7H14V13h3v1a1,1,0,0,0,1.79.61A5.38,5.38,0,0,1,23,13c3.83,0,4,4.95,4,5Z"/></svg>